<?xml version="1.0" standalone="no"?>
<!DOCTYPE svg PUBLIC "-//W3C//DTD SVG 1.1//EN" "http://www.w3.org/Graphics/SVG/1.1/DTD/svg11.dtd" >
<svg xmlns="http://www.w3.org/2000/svg">
<metadata>
This is a custom SVG webfont generated by Font Squirrel.
Copyright   : NIGMA FONTS   email  kentpwnorwichnet
</metadata>
<defs>
<font id="FatboySlimBLTCBRKRegular" horiz-adv-x="1212" >
<font-face units-per-em="2048" ascent="1638" descent="-410" />
<missing-glyph horiz-adv-x="1024" />
<glyph unicode=" "  horiz-adv-x="1024" />
<glyph unicode="&#x09;" horiz-adv-x="1024" />
<glyph unicode="&#xa0;" horiz-adv-x="1024" />
<glyph unicode="," horiz-adv-x="374" d="M10 -150q49 0 108.5 26t113 68t89 95t35.5 106q0 4 -1 13l-1 8l-28 33q-18 20 -39 40l-37 34q-16 15 -21 18q-39 16 -70.5 -5.5t-56 -64.5t-42 -100.5t-29 -111.5t-16.5 -98.5t-5 -60.5z" />
<glyph unicode="." horiz-adv-x="374" d="M16 227q0 -41 16.5 -69.5t44 -46t62.5 -25.5t74 -8q25 0 45.5 2t36.5 10t31.5 26.5t27.5 49.5q-29 49 -52 82t-48 52t-53.5 27.5t-69.5 8.5q-66 0 -90.5 -21.5t-24.5 -87.5z" />
<glyph unicode="0" horiz-adv-x="1294" d="M20 209q0 -41 39 -69.5t99.5 -48t132 -31t137.5 -16.5t114 -6t62 -1q72 0 149.5 5t152.5 20.5t142.5 43t118 74.5t80 116t29.5 163q0 92 -35 147.5t-90 92t-122.5 65.5t-131.5 70q-45 29 -69 58l-44 54q-20 25 -49.5 40t-87.5 15q-20 0 -65 -17t-93.5 -38.5t-87.5 -42 t-47 -26.5q-37 -31 -94 -85l-110 -108l-92 -94q-38 -41 -38 -47v-334zM225 352q0 61 34 126t87 117t117.5 86t126.5 34q25 0 48.5 -4t38.5 -17.5t19 -40t-8 -69.5q59 8 119 8q61 0 110.5 -16.5t80 -55.5t30.5 -108q0 -86 -47 -129t-115.5 -60.5t-146.5 -17.5h-137 q-43 0 -104.5 -1t-118 10t-95.5 41.5t-39 96.5z" />
<glyph unicode="1" horiz-adv-x="501" d="M18 858q0 -184 42 -372l85 -363q39 -33 71 -38t77 -5q35 0 68.5 8t60.5 25.5t43 45t16 68.5q0 43 -17.5 93.5t-39.5 102.5l-43 103q-20 51 -27 99q-4 29 -10 100.5t-12 151t-12.5 150.5t-6.5 99q-27 53 -53.5 72t-71.5 19q-61 0 -96 -40t-51 -96.5t-19.5 -118 t-3.5 -104.5z" />
<glyph unicode="2" horiz-adv-x="1296" d="M16 942q0 -51 16.5 -81t73.5 -30q49 0 100.5 34t105 74t110.5 74t123 34q23 0 36 -9.5t19 -25t7 -33.5t1 -35q0 -80 -28.5 -155.5t-71.5 -149.5t-93 -144.5t-93 -138t-72 -131t-29 -125.5q0 -59 24.5 -79.5t108.5 -20.5q104 0 234.5 28.5t265.5 65.5l266 71 q131 34 238 44q35 10 40 33.5t5 50.5t-5 49.5t-40 34.5h-37q-27 0 -57.5 1t-57.5 1h-37q-141 0 -278 -18.5t-279 -18.5q0 96 39 187.5t86 181.5t86 184t39 197q0 47 -18.5 86t-51 65.5t-74.5 40.5t-87 14q-80 0 -185.5 -17t-200.5 -59t-162 -111t-67 -169z" />
<glyph unicode="3" horiz-adv-x="1128" d="M10 1202q70 0 136.5 8.5t133 18.5t134 18t135.5 8q4 0 26.5 2.5t48 -1t46 -12.5t20.5 -34q0 -37 -26.5 -75.5t-66.5 -77.5t-90 -75t-96 -65.5t-84 -51.5l-57 -31q0 -6 -1 -31t-1 -31q0 -49 34 -85t87 -63.5t118.5 -48t131.5 -39t123 -37t94 -40.5q2 -4 3 -21.5t1 -21.5 q0 -45 -18.5 -72t-69.5 -53q-12 0 -41 -1t-63 -1q-33 0 -63 -1t-42 -1q-59 0 -113.5 7t-108.5 16l-108.5 17.5t-111.5 8.5q-35 0 -69 -10.5t-34 -55.5q0 -53 39 -89t99.5 -56.5t134.5 -30.5t141.5 -14t120.5 -3t74 1h53q39 0 83 1t82 2t54 1q61 18 102 53t66 81t35 100.5 t10 113.5q0 74 -25.5 121t-63.5 76.5t-82 49t-82 40t-63.5 47.5t-25.5 72q0 51 26.5 92t59.5 81t59.5 83t26.5 98q0 86 -31.5 134t-81 69.5t-111 25.5t-122.5 4q-41 0 -100.5 -2t-125 -10t-130 -22.5t-115.5 -39t-83 -61.5t-32 -86z" />
<glyph unicode="4" horiz-adv-x="1284" d="M18 666q0 -45 8.5 -96.5t29 -95.5t56 -72.5t91.5 -28.5q12 0 37.5 1t29.5 1l39 8l68 14q39 8 83 19l82 19l66 16l39 8q2 0 10.5 1t12.5 1q55 0 90 -32t60.5 -79t46 -101t46 -101.5t61.5 -79t91 -31.5q53 0 91 36t38 89q0 29 -7 55.5t-16.5 53t-16.5 52t-7 54.5 q0 47 26.5 68.5t59.5 40t59.5 43t26.5 75.5q0 63 -31 86t-75 28t-95 7t-94 27q-43 27 -66 75l-44 99q-22 49 -52.5 86t-87.5 37q-51 0 -70.5 -29t-25.5 -72l-12.5 -92t-32 -92t-81.5 -71.5t-165 -28.5q-70 0 -98.5 44t-37.5 109.5t-7 142t-3 142t-30 109.5t-86 44 q-25 0 -42 -39.5t-29.5 -101t-18.5 -134.5t-10.5 -138.5t-5.5 -114.5t-1 -61z" />
<glyph unicode="5" horiz-adv-x="1378" d="M16 788q0 -70 45 -107.5t119 -56t169 -23.5t193.5 -7t193.5 -9t169 -28.5t119 -63.5t45 -118q0 -4 -1 -21.5t-3 -21.5q-14 -2 -50 -8.5t-76 -12.5t-76 -12t-50 -8h-20q-53 0 -106.5 7t-108 15.5t-107.5 15.5t-109 7h-53q-27 0 -50 -6t-41.5 -24.5t-29.5 -55.5 q16 -43 63.5 -73t113 -48t141.5 -29.5t149.5 -15.5t136 -5t101.5 -1q70 0 151.5 19.5t153.5 61.5t120 105.5t48 151.5q0 100 -55.5 168.5t-143.5 113.5t-197.5 72t-217 44t-202.5 29.5t-153 30.5q-2 6 -3 22.5t-1 21.5q0 49 41 81.5t88 42.5q20 4 74 11l114 13 q60 7 113.5 12t73.5 5q33 14 54.5 39t33.5 54.5t16.5 62.5t4.5 64q-223 0 -430 -11.5t-431 -40.5q-29 -43 -53 -101t-40.5 -120.5t-26 -126.5t-9.5 -115z" />
<glyph unicode="6" horiz-adv-x="1044" d="M18 311q0 -90 38 -143t96.5 -83t129 -39t136.5 -9q96 0 203.5 32.5t196.5 95t147.5 153t58.5 204.5q0 66 -34 130.5t-93 99.5h-29q-20 0 -42.5 1t-45.5 1h-28h-84q-37 0 -74 -4.5t-75 -13.5t-81 -27v84l250 542q2 4 4 26.5t2 33.5q0 66 -23.5 89t-88.5 23 q-47 0 -107.5 -72.5t-123 -185t-123 -252t-106.5 -272.5t-75 -245t-29 -169zM338 236q0 31 44 75.5t102.5 86.5t116.5 72t87 30q16 0 25.5 -9.5t14.5 -23.5t6 -28.5t1 -22.5q0 -68 -48 -105t-113.5 -53t-132 -19t-103.5 -3z" />
<glyph unicode="7" horiz-adv-x="1345" d="M16 1022q0 -35 16.5 -56.5t42 -32.5t55.5 -15.5t54 -4.5q76 0 149 20.5t144.5 46.5t144 46.5t150.5 20.5q27 0 50.5 -2.5t40 -10.5t26.5 -25.5t10 -47.5q0 -70 -38 -115t-93 -76t-121.5 -52.5t-122 -42t-93.5 -47t-38 -65.5q0 -66 38 -85t88 -17t99.5 14t69.5 12v-362 q0 -4 16.5 -20.5t26.5 -22.5q6 -4 19.5 -11.5t26.5 -13.5l24 -11q10 -5 12 -5q57 0 88 35t46.5 82t21.5 97t12 79q25 102 73 159.5t103 87t113.5 42t105.5 26t78 33.5t31 70q0 49 -25.5 67.5t-62.5 19.5t-82 -6.5t-82 -7.5t-62.5 14.5t-25.5 57.5q0 4 1 11t3 10q6 14 23 50 l37 75l38 76q18 36 27 50q-25 39 -62.5 65t-81 39t-89.5 18t-89 5q-41 0 -127 -5t-189.5 -17t-213 -32.5t-200.5 -51.5t-148.5 -72t-57.5 -96z" />
<glyph unicode="8" horiz-adv-x="1247" d="M-31 1143q0 -72 40 -125t88 -100.5t88 -91.5t40 -95v-12q0 -8 -2 -10q-2 -10 -14 -46l-27 -79l-26 -80q-12 -37 -15 -45q-2 -2 -3 -18.5t-1 -24.5q0 -74 36 -130.5t94.5 -98.5t131 -70.5t148.5 -46t145.5 -25.5t120.5 -8q66 0 138.5 19.5t134 58.5t102.5 98t41 137 q0 84 -41 143.5t-101.5 103.5t-132 79t-132 69.5t-101.5 75.5t-41 99q0 66 40 111.5t88 87.5t88 87t40 109q0 31 -13.5 43t-33 15t-42 1t-38.5 2q-12 2 -55 16l-92 27l-93 27q-43 12 -53 14l-8 1q-8 1 -12 1q-78 0 -169 -16t-171 -53t-133.5 -98.5t-53.5 -151.5zM262 1130 q0 37 14.5 58.5t71.5 21.5q8 0 23.5 -16t19.5 -27q2 -6 4 -26l4 -42l4 -42q2 -20 3 -27q-59 0 -101.5 17t-42.5 83zM387 455q0 76 40 126t114 50q37 0 102.5 -25.5t131 -66.5t113.5 -90.5t48 -94.5q0 -4 -1 -12l-1 -8q-4 -6 -19.5 -22.5t-21.5 -20.5h-31q-20 0 -42.5 -1 t-45.5 -1h-29q-41 0 -102 3t-117.5 18.5t-97.5 49.5t-41 95z" />
<glyph unicode="9" horiz-adv-x="1486" d="M0 666q0 -66 29.5 -101t76 -50t102.5 -16t109 -1q94 0 177.5 33.5t162 73.5t157.5 74t169 34q76 0 109.5 -50.5t47 -125t16.5 -162.5t19.5 -163t56.5 -125t126 -50q74 0 92 27.5t18 99.5q0 250 -93 471t-285 366q-10 6 -25.5 22.5t-15.5 18.5q-16 74 -19.5 130.5 t-21 93.5t-60.5 55t-137 18q-74 0 -162 -28.5t-178 -77.5t-175 -114.5t-150.5 -141.5t-105.5 -155.5t-40 -155.5zM254 694v58q0 2 23.5 27.5t57.5 58.5l69 67l59 56q4 2 20 13l36 24l39 26l30 18l21 12l27 14l23 12q10 5 13 5q10 0 26.5 -16t16.5 -27q-45 -104 -80 -170.5 t-82 -106.5t-116.5 -55.5t-182.5 -15.5z" />
<glyph unicode="A" horiz-adv-x="1105" d="M18 305q0 -51 7.5 -92t28 -70.5t57 -45t98.5 -15.5q55 0 101 26.5t92.5 59.5t95.5 59.5t108 26.5q63 0 107.5 -35t78 -86t62.5 -112.5t60.5 -112.5t72.5 -86t98 -35q74 0 112 52t38 124q0 8 -1 21.5t-1 15.5l-209 209q-2 2 -4 15.5t-2 21.5q0 53 34.5 74.5t75.5 36t76 34 t35 66.5q0 39 -22.5 59.5t-58.5 31.5t-80 15t-87 10.5t-78.5 17.5t-56.5 36q-47 57 -82 150t-64 201l-59 220q-29 113 -64.5 209t-80.5 167t-109 97q-3 1 -7 1q-6 0 -14 -2q-13 -3 -26.5 -9t-24 -14.5t-12.5 -16.5q-139 -317 -217 -648t-78 -677zM348 652q2 34 2 59t-2 58 q-1 14 -1 27q0 21 2 42q3 35 13.5 67.5t34.5 55.5q6 -4 21.5 -19.5t19.5 -21.5l25 -56l38 -87l38 -89q18 -43 24 -61q2 -2 2 -11v-12q0 -25 -18.5 -48.5t-45 -42.5t-55 -33.5t-49.5 -20.5q-25 23 -35 55.5t-13 68.5q-2 22 -2 42q0 13 1 27z" />
<glyph unicode="B" horiz-adv-x="1751" d="M20 918q0 -49 10.5 -117t30 -143.5t48 -153.5t65.5 -145.5t82 -119t98 -73.5q6 -2 31 -2t53.5 1t53.5 1h30q109 -16 216 -38l217 -42q110 -20 220.5 -34.5t223.5 -14.5q78 0 147.5 6t121.5 32.5t82 79t30 144.5q0 82 -53.5 148.5t-138.5 117.5t-189.5 89t-208 66 t-192.5 45l-142 28q0 4 -1 20t-1 23q0 43 13.5 82.5t30.5 79.5t30.5 82t13.5 89q0 63 -27.5 130t-73.5 122.5t-106.5 90t-128.5 34.5q-111 0 -187.5 -38t-122.5 -105.5t-62 -159.5q-9 -55 -9 -116q0 -41 4 -85q-25 7 -53 7h-14q-37 -2 -69 -17.5t-52.5 -43t-20.5 -70.5z M517 1101q1 32 1 46v20q0 16 1 33t2 31t1 20q2 6 13.5 13.5t25.5 13.5l27 11q12 5 18 5q27 0 50.5 -14t40 -35.5t26.5 -47.5t10 -50q0 -4 -1 -11.5t-1 -9.5q-4 -6 -19.5 -33.5t-36 -58t-45 -54.5t-46.5 -24q-29 0 -43.5 25t-19.5 56q-4 26 -4 53v11zM602 334q0 74 34 110.5 t86 50.5q48 12 106 12h9q62 -1 121 -1q33 0 85.5 -4t110.5 -14.5t117.5 -28t106.5 -43t77 -62.5t30 -84q0 -2 -1 -10t-1 -10q-80 -16 -142.5 -24.5t-119 -13.5t-113.5 -6t-131 -1h-98q-45 0 -87 4t-87.5 13t-98.5 28q-2 10 -3 42t-1 42z" />
<glyph unicode="C" horiz-adv-x="1824" d="M16 438q0 -86 31 -150.5t83 -112.5t122 -81t145 -53q20 0 73.5 -1t114 -2t113.5 -1h74h98q61 0 122 1t106 2t51 1q29 0 99.5 10t158.5 26.5t183.5 40t174 53.5t130 65.5t51.5 74.5q0 4 -1 12.5t-1 10.5q-4 6 -20.5 21.5t-22.5 19.5q0 2 -9 2h-12h-12q-8 0 -8 -2 q-10 -4 -48 -23l-78 -40l-79 -41q-37 -19 -47 -21q-82 -27 -180.5 -43.5t-200 -25.5t-197.5 -12t-176 -3q-29 0 -83 6t-118.5 19.5t-132 34t-123 48t-91.5 63.5t-36 81t26 103.5t68 118.5t96 117.5t112.5 103.5t117 74t105.5 28q4 0 11 -1t9 -1q10 -8 34 -32l50 -50l50 -52 q24 -25 32 -34q57 45 117.5 100t109.5 117.5t81 134.5t32 151q0 76 -35 123t-115 47q-84 0 -202.5 -50t-246.5 -132t-255 -188.5t-226.5 -221t-162 -228.5t-62.5 -208z" />
<glyph unicode="D" horiz-adv-x="1421" d="M16 1292q0 -49 2 -66.5t10.5 -29.5t26 -33.5t49.5 -77.5q49 -86 68 -181l36 -189q17 -94 46 -182.5t100 -157.5q4 0 21.5 -1t21.5 -1q39 0 63.5 21.5t39 53t19.5 68.5t5 68q0 78 -17.5 146.5t-17.5 146.5h117q6 0 48 -24l96 -57l106 -69q53 -35 84 -59l75 -61 q44 -36 84 -80t67.5 -95t27.5 -102q0 -35 -14 -60q-12 -21 -57 -21q-7 0 -15 1q-18 0 -66.5 -1t-101.5 -1t-101 -1t-67 -1q-86 0 -168 13t-159.5 30.5t-151.5 31t-148 13.5q-16 0 -25 -10.5t-13.5 -23.5t-5.5 -28.5t-1 -23.5q0 -57 60.5 -95t153 -61.5t201 -35t204.5 -15.5 q77 -3 137 -3h29q70 1 82 1q82 0 160.5 16.5t140 54t99.5 99t38 151.5q0 76 -48 159t-130 166t-187.5 165t-221.5 157.5t-232.5 143.5t-218.5 121l-183 92q-80 39 -123 57q-23 -4 -32 -20.5t-12 -36.5q-2 -15 -2 -30q0 -7 0.5 -22.5t0.5 -19.5z" />
<glyph unicode="E" horiz-adv-x="1320" d="M14 479q0 -115 11.5 -197.5t48.5 -137t106.5 -80t186.5 -25.5q12 0 62 1t123 5t161 12.5t176 20.5t170 30.5t143.5 45t92.5 60.5q24 26 24 56q0 10 -2 21q-14 55 -48 71.5t-75 16.5q-8 0 -24.5 -1t-20.5 -3q-8 -2 -38 -15l-65 -27l-67 -28q-31 -12 -39 -14 q-51 -10 -112.5 -18.5t-126 -13.5t-129 -8t-121.5 -3q-43 0 -71 3t-43 15.5t-21.5 38t-6.5 70.5q0 47 9.5 74.5t30 44t53 26.5t79.5 23l67 14l103 24q57 13 121 26l121 26l103 21q46 9 69 14l84 84l-41 41q-4 2 -18.5 3t-33.5 2l-39 2q-19 1 -30 1q-80 0 -156.5 -15.5 t-152.5 -33t-151.5 -32.5t-155.5 -15q-41 0 -72 14t-58.5 31.5t-54 32t-61.5 14.5q-4 0 -12.5 -1t-8.5 -3q-6 -4 -18 -14.5l-26 -23.5l-24 -26q-11 -12 -16 -18q0 -12 -1 -46l-2 -71q-1 -37 -2 -70t-1 -45zM309 1253q0 -53 29 -70.5t80 -17.5q76 0 157.5 22.5t164.5 52.5 l165 57q82 28 160 40h45q39 0 81 -1t79 -1t47 2q8 2 21.5 12.5t26.5 23.5t23.5 26.5t12.5 21.5q-27 43 -61.5 67.5t-75.5 38t-85 17.5t-89 4q-39 0 -112 -9t-160 -26.5t-177 -43t-164 -58.5t-121 -73t-47 -85z" />
<glyph unicode="F" d="M16 514q0 -51 15.5 -133t47.5 -164t80 -144.5t111 -72.5q2 0 17.5 9t35.5 23l41 27q22 14 33 25q10 6 25.5 22.5t15.5 18.5v334l84 63h543q14 0 23.5 13.5t14.5 30t6 33.5t1 28q0 63 -56.5 90.5t-140.5 35.5q-49 4 -102 4q-38 0 -79 -2q-97 -5 -181 -7q-17 0 -33 -1 q-63 0 -107 7q-56 8 -57 41v374q0 12 21.5 33t49.5 42.5t56.5 36.5t40.5 15h502q59 -41 103 -64.5t106 -23.5q31 0 58.5 14.5t27.5 53.5q0 57 -41 100t-104.5 74t-142.5 50.5t-153.5 31.5t-137 16t-95.5 4q-180 0 -290.5 -28.5t-174 -84t-90.5 -135t-36 -182t-12 -227.5 t-22 -268q0 -2 -1 -16.5t-2 -32t-1 -35.5v-29z" />
<glyph unicode="G" horiz-adv-x="1691" d="M18 377q0 -74 31 -142.5t96 -109.5h41q31 0 65 -1t62 -1h41q98 0 187.5 26.5t176.5 59.5t173 59.5t178 26.5q49 0 87 -32t68.5 -78t59.5 -101t60.5 -101t69.5 -78t89 -32q37 0 72 17.5t61.5 44t43 60.5t16.5 68q0 6 -1 31t-3 31q-68 37 -115 65.5t-82 56t-62.5 58.5 t-56 70l-62.5 90l-81 121q-2 2 -5 9t-3 11t3 12.5t5 8.5q2 2 18.5 8t35.5 12l39 12l32 11q20 6 74 17l113 25l114 25l76 17q4 4 20.5 19t20.5 22q6 8 13 21t13 27l12 23q5 10 5 13q-10 35 -26.5 53t-39 25.5t-47.5 8.5t-49 1q-6 0 -81 -9.5t-182.5 -28t-230.5 -49 t-228.5 -72.5t-175 -97.5t-69.5 -124.5q0 -4 6 -17l14 -25l14 -26q7 -12 7 -16q0 -2 1 -18.5t1 -24.5q0 -47 -24.5 -73t-63.5 -38t-85 -13h-23q-34 0 -68 2q-45 3 -81 8t-52 5q0 12 -5 40t-9 57l-9 58q-4 28 0 40q18 80 87 172t162 185t197 182l190 162l144.5 125t57.5 71 q0 59 -44 104t-106 45q-68 0 -166 -66.5t-207.5 -174t-218 -242.5t-195.5 -270.5t-141.5 -257t-54.5 -203.5z" />
<glyph unicode="H" horiz-adv-x="1619" d="M16 1217q0 -68 13.5 -175.5t38 -229.5t60.5 -246t81 -223t99 -161.5t114 -62.5q31 0 58.5 5t51 19.5t42 40t32.5 66.5q8 25 -5 59.5t-32 73.5l-34 77q-16 38 -17 66q0 45 35 76t89 51.5t118.5 31.5t124 17.5t103.5 7.5t59 1q4 0 11 -1l7 -1q4 -4 20.5 -19.5t20.5 -21.5 q12 -20 40 -63l60 -96l70 -113l70 -112l58 -98l38 -63q35 -29 60.5 -36t64.5 -7q86 0 86 88q0 6 -1 21.5t-1 17.5l-209 418q-2 2 -4 11t-3 19l-2 21q-1 10 -1 14q0 72 38.5 105.5t137.5 38.5q2 4 3 11t1 9q0 20 -30 38.5t-67.5 32t-72.5 21.5t-43 12q-66 27 -109 95.5 t-69.5 140.5t-43 127t-28.5 55q-2 0 -12 -5l-24 -11l-27 -13l-21 -12q-8 -4 -24.5 -14t-26.5 -17.5t-13 -9.5v-336q0 -2 -11 -7t-28.5 -12t-35 -13t-29.5 -8q-25 -6 -90 -19l-138 -26l-139 -24q-66 -11 -92 -15q-8 -1 -14 -2q-33 0 -53 31q-25 38 -41.5 98.5t-29.5 134 t-35.5 136t-59.5 105.5t-99 43q-39 0 -58 -13t-26 -37q-6 -21 -7 -46q0 -11 0.5 -33t0.5 -34z" />
<glyph unicode="I" horiz-adv-x="417" d="M18 647q0 -31 7.5 -85t21.5 -117.5t36.5 -128t53.5 -118t69 -87t85 -33.5q4 0 12 2t10 2q6 4 19 15l25 25l25 25q11 12 15 19l1 7q1 7 1 11q0 27 -10 80t-28.5 116.5t-45 130.5t-60.5 121t-72 89t-81 35q-45 0 -64.5 -32t-19.5 -77z" />
<glyph unicode="J" horiz-adv-x="1296" d="M18 772q0 -4 1 -12l1 -8q2 -4 14 -22l24 -37l27 -39q13 -19 19 -27q4 -6 21 -23l20 -20q98 -74 197.5 -169.5t206 -179t224.5 -141t251 -57.5q143 0 220 66.5t77 226.5q0 68 -32 198.5t-83 289.5t-116.5 326t-133 303t-132 223t-113.5 87q-4 0 -13 -1l-8 -1 q-6 -4 -18 -15l-26 -25l-24 -25q-11 -12 -16 -19q-2 -2 -3 -9t-1 -11t1 -11.5t3 -11.5q29 -86 77 -188l103 -213l112 -227q56 -116 101 -229.5t74 -221t29 -201.5q-139 0 -255 40t-212 98.5t-174 127.5l-140 128q-62 58 -111.5 98.5t-88.5 40.5q-103 0 -103 -109z" />
<glyph unicode="K" horiz-adv-x="1775" d="M18 778q0 -39 7.5 -98t21.5 -128t36.5 -138.5t52.5 -126t69 -91t86 -34.5q51 0 97 20.5t90 45t90 45t100 20.5q104 0 221 -34t239.5 -74t248.5 -73.5t251 -33.5q33 0 80 1t91 13t75 39t31 76q0 61 -41 86.5t-98 33.5q-39 5 -78 5l-34 -1q-24 -1 -44 -2q-26 0 -43 3 q-16 2 -58 11l-93 22l-110 25l-114 27l-99 24l-69 18q-25 6 -59.5 18t-68.5 27l-57 24q-24 10 -24 15v82q0 2 38 42l91 93l111 109l94 92q55 51 107.5 93t106.5 76.5t114.5 65.5t132.5 57q0 6 1 31t1 31q0 61 -21.5 84.5t-85.5 23.5q-78 0 -144.5 -41t-127.5 -88l-95 -72 l-120 -94l-107 -84l-55 -43q-20 -18 -59 -56l-89 -87l-105 -104l-103 -105l-88 -89l-58 -60q-49 25 -75.5 79t-48 116.5t-49 124t-77.5 98.5q-33 -12 -50 -26.5t-25.5 -32t-9.5 -37t-1 -44.5z" />
<glyph unicode="L" horiz-adv-x="1044" d="M20 1044l6 -92l7 -140l8 -165l8 -165l7 -141q3 -62 5 -91q8 -31 28 -61.5t43.5 -57.5t48.5 -49l48 -41q8 0 33 -1t51 -1q27 0 50.5 -1t33.5 -1q37 0 110 4t162 13t182 24.5t169 37t125 50.5t49 63q0 23 -9 35t-23.5 18.5t-33 8.5t-34.5 2q-152 0 -303.5 -22.5 t-303.5 -22.5h-51q-33 0 -64.5 7t-55 24.5t-23.5 54.5v710q0 2 -7 12.5t-17.5 24l-21.5 26.5l-18 21l-21 23l-27 28l-23 23q-10 10 -13 10q-8 2 -14 2q-18 0 -35 -11q-23 -15 -40 -38.5t-26.5 -50.5t-9.5 -45v-25z" />
<glyph unicode="M" horiz-adv-x="1847" d="M16 272q0 -8 1 -29.5t1 -43.5q0 -23 1 -44.5t1 -29.5q4 -6 19.5 -21.5t21.5 -19.5q2 0 9.5 -1t11.5 -1q98 0 160.5 54t100.5 133t58 165l37 152q29 -27 63 -71l71 -96l79 -106q41 -53 85 -96t90 -70.5t94 -27.5q82 0 133 41t83.5 102.5t52 133t39 133t44 102.5t65.5 41 q2 0 9.5 -1t11.5 -1q8 -27 32 -92l50 -140l50 -139q24 -66 34 -90l44 -109q24 -59 55.5 -110t76.5 -85t110 -34q86 0 145.5 29.5t112.5 99.5q-20 35 -54 52.5t-70.5 31.5t-70.5 31.5t-56 52.5q-55 84 -90 169t-62 169l-51 166q-25 82 -61.5 160.5t-93 153.5t-144.5 142 q-6 2 -30.5 3.5t-31.5 1.5q-66 0 -104.5 -38t-63 -98.5t-38.5 -135.5l-28 -149q-13 -75 -30.5 -141.5t-48.5 -109.5q-4 -2 -11 -3t-9 -1q-66 0 -111 59t-80 147.5t-66.5 193t-70.5 192.5t-91 147t-128 59h-11q-6 0 -8 -2l-250 -249q-2 -2 -8 -35t-14 -84l-17.5 -115.5 t-17.5 -128.5l-15 -123l-12 -100q0 -4 -1 -21.5t-1 -42.5q0 -23 -1 -46.5t-1 -35.5z" />
<glyph unicode="N" horiz-adv-x="1169" d="M14 459q0 -16 1 -57.5t2 -88.5t2 -89t1 -58q4 -23 19.5 -32t35 -12t39 -2t31.5 1q76 0 113 30.5t54.5 82t23.5 120t18 146.5h43q88 -125 195.5 -240t220.5 -219q8 0 31.5 -1t32.5 -1q74 0 129 33.5t100 93.5q0 8 1 32.5t1 51.5v49v35q0 154 -22.5 304t-22.5 304 q0 61 13.5 118.5t30.5 114t30.5 111.5t13.5 113q0 39 -8 73.5t-26.5 61.5t-48.5 42t-71 15q-27 0 -43 -1t-26 -9t-17.5 -26.5t-13.5 -51.5q-4 -25 -12 -69.5l-17 -99.5l-17 -113l-17 -112l-14 -92l-7 -56q-2 -25 -3 -84.5t-1 -126.5q0 -66 1 -125.5t3 -81.5 q-4 -6 -19.5 -22.5t-21.5 -20.5l-8 -1q-8 -1 -12 -1t-11.5 1t-9.5 1q-35 41 -64.5 106.5t-59.5 139.5l-61 152q-32 77 -70 138.5t-83 100.5t-102 39q-76 0 -125 -40t-80 -104.5t-46 -144.5t-20.5 -160t-5.5 -152v-116z" />
<glyph unicode="O" horiz-adv-x="1294" d="M20 500q0 -80 35 -138.5t91.5 -100.5t128 -68.5t145.5 -42t145.5 -21.5t124.5 -6q47 0 109.5 11t128 32.5t128 54.5t112 75t79 94t29.5 112q0 117 -66.5 204t-166 143t-213 85t-205.5 29q-80 0 -184.5 -40t-197.5 -104.5t-158 -147.5t-65 -171zM266 432q0 57 28 114.5 t73 103.5t102 75t117 29q4 0 11 -1l7 -1q6 -4 31 -23l53 -40l53 -40q25 -18 31 -22q0 -2 6 -2h13h12q10 0 10 2q6 0 24.5 7t39.5 14l38 14q18 6 25 6q18 -4 41 -27t41 -52.5t30.5 -60t12.5 -49.5q0 -70 -48 -108.5t-114.5 -57t-137.5 -21.5t-118 -3q-41 0 -105.5 2t-126 14 t-105.5 42t-44 85z" />
<glyph unicode="P" d="M18 1178q0 -53 9.5 -155.5t30 -224.5t52 -250t75.5 -232.5t102.5 -171t130.5 -66.5q61 0 83.5 22.5t22.5 83.5v17q0 10 -1 20t-1 19v10q0 4 -7 22l-15 40l-14.5 40.5t-4.5 22.5q10 51 67.5 86t137.5 64.5t170 59t167 70.5t127 98.5t50 143.5q0 8 -3 31.5t-5 32.5 q-84 94 -182.5 184t-209 160.5t-233.5 114.5t-256 44q-154 0 -223.5 -66t-69.5 -220zM268 1090q0 39 5.5 63.5t18.5 38.5t37.5 18t63.5 4q57 0 144.5 -20t168 -59t139 -94.5t58.5 -122.5q0 -61 -57.5 -108.5t-134 -84.5t-154.5 -61.5t-119 -38.5q-51 31 -83.5 87t-52 122.5 t-27 134.5t-7.5 121z" />
<glyph unicode="Q" d="M16 584q0 -123 41 -202t108.5 -128t155 -73.5t181.5 -39t186 -26t168 -33.5q12 -4 42 -10l63 -13l62 -11l42 -7q6 4 22.5 19.5t20.5 21.5q0 2 1 9t1 11t-1 12.5t-1 10.5q-2 2 -7 13.5t-12 25.5l-14 26q-6 12 -10 19q-2 4 -15 22l-29 39q-15 20 -27.5 39t-10.5 25 q8 63 43 115.5t74 103.5t68.5 109.5t29.5 138.5q0 88 -41 150.5t-105.5 102.5t-144.5 58t-157 18q-135 0 -266.5 -29.5t-235 -96t-168 -170t-64.5 -250.5zM227 627q0 98 45 162.5t116 103.5t156 55.5t167 16.5h28q23 0 45 -1l43 -2q20 -1 29 -1q37 -10 55.5 -31t26.5 -46.5 t8 -56.5v-55q0 -74 -18.5 -108.5t-48 -48t-67.5 -15.5t-76 -7t-71.5 -23.5t-58.5 -67.5q-6 -12 -9 -42t-11 -64t-22.5 -64.5t-41.5 -40.5q-61 23 -114.5 52.5t-93.5 70.5t-63.5 93t-23.5 120z" />
<glyph unicode="R" horiz-adv-x="1404" d="M15 296q-1 -14 0 -28q0 -51 9 -96q11 -57 42.5 -96t101.5 -39q31 0 54.5 3t45 12t42 26.5t44.5 46.5q23 0 73 2t111.5 6t130 8t130 8.5t112 9.5t72.5 7q37 4 93.5 14t118.5 24l126 26q63 13 116.5 25.5t88.5 22t41 13.5l127 84h-1076q0 61 43.5 113.5t106.5 105.5 l139 113q76 59 139.5 130.5t106.5 163t43 209.5q0 113 -44 186.5t-115.5 118t-161 61.5t-181.5 17q-162 0 -274.5 -51t-188 -140t-117.5 -206t-63.5 -247t-27 -267t-5.5 -264q0 -55 -3 -122zM354 584v544q0 76 36 126.5t91.5 79t120 40.5t119.5 12q68 0 103.5 -2t62 -18 t55.5 -52l82 -102q0 -2 1 -8t1 -10t-1 -13.5t-1 -11.5q-2 -10 -8 -33l-12 -50l-13 -50l-8 -32l-64 -69l-101 -102l-102 -101l-69 -64q-6 -6 -34 -23l-60 -37l-65.5 -38.5t-49.5 -26.5l-8 -1q-8 -1 -12 -1t-12 1l-9 1q-10 4 -26.5 20.5t-16.5 20.5z" />
<glyph unicode="S" d="M18 961q0 -88 58.5 -144.5t147.5 -96.5t195.5 -73t205 -72.5t173 -96t101.5 -146.5q-10 0 -42 -2t-42 -2q-80 0 -153.5 22.5t-146.5 50t-146.5 50t-153.5 22.5q0 -66 35 -120t91 -98t127 -78t144.5 -55.5t143 -32.5t123.5 -11q45 0 101 16.5t103 47t80 72.5t33 95 q0 117 -62.5 199t-156.5 141.5t-203 100.5l-203 76q-94 36 -156.5 72t-62.5 83q0 2 1 10t1 10q70 6 155 38t168 72t152 80l111 62q35 37 40 72t5 80q0 53 -23.5 76.5t-82.5 23.5q-39 0 -118 -23.5t-174 -64.5t-195.5 -95t-183.5 -114.5t-136.5 -124t-53.5 -122.5z" />
<glyph unicode="T" horiz-adv-x="1402" d="M18 940q0 -27 18.5 -47.5t46.5 -33.5t56.5 -20.5t50.5 -7.5q39 0 86.5 23t96.5 51l98 58q49 29 92 38q272 70 545.5 84.5t554.5 14.5q0 63 -44 102t-105.5 59.5t-128 26.5t-109.5 6q-37 0 -143.5 -8t-247 -25.5t-293 -45t-280.5 -66.5t-211 -91t-83 -118zM436 606 q0 -35 9.5 -90t29 -118.5t47 -128t65.5 -117t84 -85t101 -32.5q27 0 52.5 1t47 10t39 26.5t29.5 52.5q-25 35 -51 93l-56 123l-62 131q-32 67 -65.5 120t-70.5 87t-74 34q-43 0 -84 -29t-41 -78z" />
<glyph unicode="U" horiz-adv-x="1169" d="M18 733q0 -139 30 -258t94.5 -207t168 -137t252.5 -49q47 0 109.5 15.5t128 44t128 66.5t112 85t79 99t29.5 108v542q0 31 -20.5 61t-49 54.5t-61.5 39.5t-60 15q-4 0 -11 -1l-7 -1q-6 -4 -22.5 -20t-20.5 -23v-18q0 -49 7 -97t16.5 -96.5t16.5 -97.5t7 -100 q0 -96 -20.5 -181t-65.5 -150t-117.5 -101.5t-179.5 -36.5q-115 0 -178.5 59.5t-94 147.5t-40.5 190l-19 188q-4 2 -16 10l-26 14q-13 7 -24 12l-18 8l-8 1q-8 1 -12 1q-31 0 -51.5 -20.5t-32.5 -50.5t-17.5 -61.5t-5.5 -54.5z" />
<glyph unicode="V" horiz-adv-x="1187" d="M16 684q0 -41 35 -105.5t90.5 -136t125 -144.5t139 -130t133 -94t104.5 -37q68 0 118 19.5t93 54t83 80.5l87 100l18 88l29 133l35 156l35 156l29 133l20 87q2 4 8 22.5t14.5 39t14.5 39t6 24.5q0 14 -9.5 36t-24.5 42.5t-33.5 34.5t-37.5 14q-68 0 -113.5 -43 t-77.5 -113.5t-51.5 -161.5t-34.5 -185l-30 -186q-14 -91 -33.5 -161.5t-48 -113.5t-73.5 -43q-4 0 -12 1l-7 1l-502 502q-2 2 -15 3t-21 1q-57 0 -75 -30t-18 -83z" />
<glyph unicode="W" horiz-adv-x="1796" d="M16 938q0 -55 16.5 -139t48.5 -179.5t76 -191.5t99 -174t119.5 -126t136.5 -48q68 0 122 27.5t104 60.5t98.5 60.5t103.5 27.5q4 0 20.5 -2t20.5 -4q37 -23 94.5 -66t125 -85t138 -72.5t131.5 -30.5q10 0 31 1t23 3l252 250l1 12q1 12 1 29q0 16 1 33.5t1 27.5 q0 109 -22.5 213.5t-56.5 205.5t-76 200.5t-80 201t-66.5 205t-38.5 209.5v45q0 39 1 81t1 79t-2 45t-12.5 21.5t-23.5 26.5t-26.5 23.5t-19.5 12.5q-51 -25 -78 -69t-38 -96t-12 -107.5t-1 -102.5q0 -158 29.5 -302t64.5 -288.5t64.5 -295t29.5 -318.5q-82 0 -142.5 37 t-106.5 92t-82.5 119.5t-74.5 120t-79 92.5t-96 37q-61 0 -92 -35t-47.5 -86t-23.5 -112.5t-19.5 -113t-37 -86t-73.5 -34.5q-4 0 -11.5 1t-9.5 3q-18 27 -47 90l-65 142l-79 164q-42 85 -85 154.5t-85 114.5t-79 45q-31 0 -44 -16t-19 -40q-4 -20 -4 -41q0 -10 0.5 -28 t0.5 -24z" />
<glyph unicode="X" horiz-adv-x="1009" d="M20 1377q0 -8 23 -38l61 -83l82 -111q45 -61 83 -122.5t63.5 -116t25.5 -91.5q0 -61 -22.5 -116.5t-55 -106.5t-71.5 -102.5t-72 -102.5t-55.5 -105.5t-22.5 -113.5q0 -55 29 -71.5t78 -16.5q47 0 78.5 25.5t56.5 62.5t44.5 82t41 82t49 62.5t66.5 25.5q53 0 99 -50.5 t85 -124t74 -161.5t67.5 -162t64.5 -124t66 -50q59 0 86 26.5t27 80.5q0 10 -2 34.5t-4 28.5l-377 750q-2 4 -3 26.5t-1 32.5q0 68 28.5 126t70.5 109.5t92.5 99.5t92.5 97t70.5 103.5t28.5 115.5q0 57 -31.5 73.5t-83.5 16.5q-10 0 -31.5 -2t-23.5 -4l-334 -334q0 -2 -7 -3 t-11 -1q-41 0 -67.5 29t-47 72t-40 92t-45.5 92t-63.5 71.5t-93.5 28.5q-57 0 -101 -36q-67 -57 -67 -96z" />
<glyph unicode="Y" horiz-adv-x="1247" d="M16 1102q0 -86 35 -151.5t93.5 -110.5t134 -67.5t159.5 -22.5q8 0 23.5 1t17.5 1q10 2 47 14l80 27l79 26q36 12 46 17q2 0 10.5 1t12.5 1t11 -1l7 -1q6 -4 22.5 -20.5t20.5 -22.5q-14 -78 -23.5 -137.5t-13.5 -115t-6 -110.5t-2 -125q0 -90 12.5 -145.5t46 -85t94 -39.5 t154.5 -10q0 51 -8 97t-19.5 91t-19.5 89t-8 93q0 119 23.5 231.5t59.5 223.5t77 219.5t76.5 217t59 221t23.5 229.5q-106 0 -176.5 -57.5t-125 -144.5t-103.5 -187.5t-113.5 -187.5t-154.5 -144.5t-228 -57.5q-72 0 -115.5 34t-68.5 84t-33 111.5t-8 117.5 q-106 0 -152.5 -52.5t-46.5 -150.5z" />
<glyph unicode="Z" horiz-adv-x="1355" d="M14 1212q0 -57 33 -101t84 -75.5t113.5 -54.5t124 -36t114 -19t80.5 -6q2 -2 3 -9.5t1 -11.5q0 -37 -37.5 -79t-94.5 -90l-123 -103q-67 -55 -123 -120t-94 -140.5t-38 -161.5q0 -47 21.5 -92t57.5 -80t82 -55.5t95 -20.5q111 0 217.5 33t211 72.5t211 73.5t218.5 34h27 q16 0 32.5 -1t29.5 -1h14q6 0 24.5 -7l38.5 -15l39 -13q18 -6 23 -6q33 0 57.5 16.5t39.5 41t23.5 53t8.5 55.5q0 88 -54.5 129t-136.5 41q-113 0 -222 -17.5t-219 -39t-220.5 -39t-222.5 -17.5q0 4 -9.5 13.5t-5.5 13.5q55 70 138 142.5t173 138.5l173 124l143 97 q31 37 48 65.5t26.5 56t11.5 57t2 68.5q0 74 -36 111t-90 50q-50 12 -110 13q-5 0 -10 -1q-66 -1 -125 -1q-195 0 -374 -13l-388 -30q-2 -4 -4 -21.5t-2 -21.5z" />
<glyph unicode="a" horiz-adv-x="1187" d="M16 283q0 -20 1 -43l2 -44q1 -22 1 -30q4 -23 20.5 -32t37 -12t40 -2t32.5 1q59 0 96 21.5t65 55.5l59 71q30 38 77 72t119.5 55.5t187.5 21.5q45 0 72.5 -28t47 -71t34 -91t34 -91t48 -70.5t73.5 -27.5q59 0 96 20.5t37 83.5q0 39 -14.5 69t-33 58.5t-32.5 58t-14 70.5 q0 33 5 58.5t20.5 47t40 40t65.5 39.5q-10 27 -41 41t-64.5 22t-63.5 11.5t-40 9.5q-55 27 -99 84t-82 127l-75 143q-37 74 -79 134.5t-92 99t-118 38.5q-61 0 -107 -38.5t-79 -98t-56.5 -133.5t-40 -143.5t-28.5 -127t-23 -85.5q-25 -66 -48 -102l-41.5 -66.5t-29 -70.5 t-10.5 -116v-30zM432 840q-1 10 -1 19q0 19 3 37q4 28 18.5 47.5t49.5 19.5q2 0 9 -1t11 -1l34 -50l50 -74l50 -77q24 -37 32 -51q2 0 3 -8.5t1 -12.5q0 -27 -13 -40t-32.5 -19t-42.5 -6h-41q-49 0 -75.5 8t-39 27.5t-13.5 52t-1 82.5q0 18 -2 47z" />
<glyph unicode="b" horiz-adv-x="1607" d="M18 852q0 -14 11.5 -60.5t30 -106.5t43 -126.5t52 -124t57.5 -96.5t58 -45q6 -2 31 -1t53 1q29 0 53.5 1t30.5 -1q106 -31 194 -80l173 -97q86 -48 183 -82t224 -34q68 0 139.5 21.5t131 61.5t97.5 98.5t38 131.5q0 76 -34 130.5t-88 94.5t-123.5 66.5t-140.5 49.5 l-137 46q-67 23 -114 52q5 55 5 109q0 85 -12 164q-19 130 -82 228.5t-174.5 155.5t-279.5 57q-123 0 -204.5 -55t-129 -144t-67 -199t-19.5 -216zM378 1063v32q0 31 1 59q2 42 2 71q51 0 112.5 -12.5t116 -40t90 -72.5t35.5 -111q0 -199 -194 -198q-49 0 -81 24.5 t-49.5 63.5t-24.5 87t-8 97zM645 438q0 4 1 12.5t1 10.5q4 6 19.5 21.5t23.5 19.5h33q25 0 50.5 1t47.5 1h35q25 0 72 -1t103 -6t114.5 -16.5t106.5 -29t79 -45t31 -66.5q0 -43 -23.5 -68.5t-58.5 -40t-76 -18.5t-76 -4q-23 0 -66.5 4t-98 14.5t-110.5 27.5t-102 42 t-76 60.5t-30 80.5z" />
<glyph unicode="c" horiz-adv-x="1140" d="M15 665q1 -32 1 -59q0 -109 34 -184.5t96.5 -123.5t149.5 -70.5t191 -22.5q43 0 113 3t149.5 11t160.5 25.5t146.5 47.5t106.5 73t41 104q-76 0 -149.5 -15.5t-146 -33t-146.5 -32.5t-152 -15q-74 0 -137 8t-109.5 34.5t-73 77t-26.5 134.5q0 6 1 24l2 38l2 38q1 18 1 25 q25 27 65 77t91 99t107.5 85t115.5 36q20 0 31.5 -7.5t22 -16.5t20.5 -16.5t29 -7.5q23 0 42 16.5t33.5 40t22.5 48t8 43.5q0 39 -19.5 73.5t-50 60.5t-67.5 40t-74 14q-10 0 -29 -5l-38 -11q-20 -6 -37 -13.5t-21 -11.5l-461 -460q-23 -23 -32 -50.5t-12 -58.5 q-2 -23 -2 -47v-15z" />
<glyph unicode="d" horiz-adv-x="1546" d="M16 270q0 -39 28 -67.5t70 -49t93 -34t97 -21.5t83 -12t51 -4q6 0 54.5 -1t112 -2t126.5 -1h105h77q57 0 121 1t120 2t79 1q45 0 97 22.5t97.5 57.5t75 80t29.5 90q0 6 -2 22.5t-4 20.5q-63 80 -160.5 166t-213.5 174l-243 178l-249 180l-233 177q-112 87 -198 169 q-8 0 -31.5 2t-31.5 2q-47 0 -77 -16t-30 -70q0 -98 21.5 -192t46.5 -189.5t46.5 -190.5t21.5 -194q0 -59 -28 -96t-61.5 -66.5t-61.5 -60.5t-28 -78zM426 803q92 0 203.5 -46t219 -117t199 -154t142.5 -154q-63 -37 -120.5 -54.5t-114 -25.5t-117.5 -8h-127q-12 0 -46 1 l-71 2q-37 1 -69.5 2t-45.5 1q-20 61 -30.5 133t-15.5 144.5t-6 143.5t-1 132z" />
<glyph unicode="e" horiz-adv-x="1284" d="M18 983q0 -4 1 -12t1 -10q20 -150 30.5 -274t29 -223t53.5 -174t102.5 -127t176 -83t276.5 -39q37 -2 74 -2q56 0 114 5q95 9 183 38t164.5 79t134.5 130q-10 39 -44 42t-61 3q-57 0 -109 -14.5t-102.5 -31t-103.5 -30.5t-113 -14h-116q-72 0 -142.5 14t-122 49 t-51.5 107q0 49 40 82.5t89 44.5q20 4 67 11l103 15l121 18l121 17l103 14l69 9q6 4 22.5 19.5t20.5 21.5q0 2 1 10t1 12t-1 11l-1 8q-4 4 -16 11l-26 14q-13 7 -25.5 12.5t-16.5 5.5h-668q-8 0 -16 9t-15.5 22.5t-10.5 26.5t-1 24q4 16 24.5 36.5t47.5 39t53.5 32.5 t42.5 19l67 14l103 23l121 27l121 26l103 21q46 9 69 13q35 10 40 33t5 51q0 27 -5 49.5t-40 32.5q-25 -2 -77 -8l-119 -14l-138 -18l-138 -17l-119 -14q-52 -6 -77 -11q-18 -2 -56 -7t-84 -14t-96 -22.5t-90 -33t-67 -47t-27 -62.5z" />
<glyph unicode="f" horiz-adv-x="1150" d="M16 743q0 -39 12.5 -106.5t34 -145t52 -159.5t68.5 -147.5t82 -107.5t91 -42q70 0 111 43t57 103q15 54 15 112v14q-2 66 -17 111q4 4 16 10l24 13q13 7 25.5 12.5t18.5 5.5q23 4 82 10l126 13q67 7 126 12.5t84 5.5l82 84q-23 45 -60.5 70.5t-84 38t-95.5 15.5t-92 3 q-90 0 -179 -22.5t-179 -22.5q-4 0 -12 1l-7 1q-18 8 -33.5 25.5t-26.5 38t-18.5 42t-7.5 39.5q0 111 38 194t103.5 138t152.5 82.5t188 27.5q49 0 94 -7t88 -16t86 -16.5t90 -7.5q31 0 57.5 13.5t26.5 50.5q0 80 -53.5 127t-127 70.5t-152.5 30.5t-130 7q-164 0 -302 -57 t-239.5 -159.5t-158 -242t-56.5 -305.5z" />
<glyph unicode="g" horiz-adv-x="1595" d="M18 416q0 -47 22.5 -92t63.5 -74q8 0 29 -1l43 -2q23 -1 43 -1h31q88 0 174 14t170 31.5t169 32t173 14.5h22q14 0 28.5 -1t25.5 -2l10 -1l293 -293q2 -2 15 -3t22 -1q31 0 61.5 8t56 25.5t42 42t16.5 57.5q0 8 -1 22.5t-3 16.5l-293 334v84q0 2 19.5 9t46 13t55 11.5 t47 7.5t65.5 2h103h100q47 0 66 -2q6 4 22.5 19t20.5 22q0 2 1 11t1 13q0 18 -32 33.5t-81 27t-108.5 19.5t-116 13t-102.5 8.5t-66 3.5q-131 0 -199.5 -13.5t-102.5 -35t-44 -51.5l-23 -62q-12 -33 -38.5 -67t-92.5 -66q-23 -12 -86 -25.5t-134 -26t-129 -21.5t-69 -11 q-10 0 -25.5 15t-15.5 26q0 2 5 13l12 26q6 14 13 26.5t11 18.5q66 92 142.5 180t157.5 171l164 163l163 153q4 4 11 15.5t13.5 25t11.5 25.5t5 18q0 59 -20.5 73.5t-57.5 14.5q-39 0 -66.5 -8t-62.5 -37l-79 -76l-119 -118l-139 -138l-138 -140l-118 -119l-77 -78 q-53 -55 -90 -135t-37 -158z" />
<glyph unicode="h" horiz-adv-x="1355" d="M16 463q0 -37 6.5 -51.5t38.5 -36.5q61 -41 97.5 -92.5t65 -100.5t56 -88t74.5 -53q2 0 10.5 -1t12.5 -1q96 0 135 28.5t49 70.5q7 28 7 60q0 16 -2 32q-2 21 -2 41q0 27 4 52q7 42 41 70.5t122 28.5q70 0 112 -28.5t70.5 -71.5t50 -92.5t52.5 -92.5t77 -71.5t124 -28.5 q23 0 44 2t39.5 10t34 26.5t23.5 49.5q2 8 2 16q0 25 -20 53q-26 36 -59.5 75.5t-63 82.5t-29.5 88q0 43 21.5 70t53 42t68.5 24.5t69 20.5t53.5 29.5t21.5 51.5q-143 0 -223.5 35t-124.5 88t-65.5 113.5t-47 113.5t-68.5 88t-131 35v-442q0 -16 -29.5 -25.5t-67.5 -13.5 t-74 -5t-46 -1q-78 0 -116 38.5t-56 97t-27.5 126t-29 126t-60.5 97.5t-121 39v-520q-12 -8 -36 -31l-52 -49l-49 -51q-23 -25 -31 -37q-2 0 -3 -15.5t-1 -21.5z" />
<glyph unicode="i" horiz-adv-x="374" d="M16 395v-102q0 -55 13.5 -103.5t45 -80t95.5 -31.5q31 0 58.5 4t51 18.5t42 40t32.5 66.5q4 11 4 34q0 12 -1 27q-3 45 -14 100.5t-29.5 116t-43 110.5t-55.5 83t-68 33q-55 0 -82.5 -37t-38.5 -88q-10 -47 -11 -96q0 -19 0.5 -52t0.5 -43z" />
<glyph unicode="j" d="M20 1044q0 -39 37 -115.5t97.5 -171.5t135.5 -197.5t148.5 -193t141 -156t110.5 -87.5q57 -29 126 -37t134 -8q61 0 107.5 27.5t77 72.5t45 100.5t14.5 108.5q0 29 -4 105.5t-12.5 184t-20.5 235.5t-28.5 257t-37 250t-47 214t-57.5 149.5t-65 56.5h-15q-8 0 -8 -2 q-6 -2 -17 -7l-25 -11q-13 -6 -25.5 -13.5t-16.5 -9.5v-20q0 -14 -1 -32t-1 -32v-20q0 -160 26.5 -314.5t58.5 -308.5t58.5 -307.5t26.5 -308.5q0 -55 -31.5 -69.5t-83.5 -14.5q-10 0 -30.5 2t-22.5 4l-502 502q-35 35 -46 78.5t-23.5 83.5t-37 67t-85.5 27 q-23 0 -40.5 -1.5t-31.5 -9.5t-21.5 -26.5t-7.5 -51.5z" />
<glyph unicode="k" horiz-adv-x="1824" d="M18 795q0 -88 22.5 -205t71 -221.5t124 -177t180.5 -72.5q10 0 27 1l34 2q16 1 29.5 2t15.5 1l375 250q2 2 15.5 3t21.5 1t25.5 -1t21.5 -3l47 -8l83 -15q48 -8 100.5 -18l100.5 -19l83 -14l47 -8l7 -1q7 -1 11 -1t12.5 1t10.5 1l84 7q59 5 126 12l126 14q59 6 82 8 q6 4 22 19.5t21 21.5q0 2 1 10t1 12q0 57 -62.5 84t-157 40.5t-205 18.5t-204.5 18t-156.5 41t-62.5 87q0 72 52 148.5t127 148.5t154.5 132.5t135.5 96.5q0 2 1 9.5t1 11.5q0 39 -28 52t-60 13q-57 0 -121 -37.5t-127.5 -96t-124.5 -131.5l-117 -142l-100 -130 q-45 -60 -76 -93l-65 -67l-101 -101l-101 -101q-48 -47 -69 -65q-2 0 -9 -1t-11 -1q-45 0 -71 41t-43 101.5t-31.5 132t-39 132t-63.5 101.5t-105 41q-88 0 -88 -86z" />
<glyph unicode="l" horiz-adv-x="1343" d="M20 961q0 -6 12.5 -32t28 -53.5t27.5 -52t16 -30.5q2 -4 7.5 -21.5t12.5 -37t13 -39t8 -27.5q18 -66 29.5 -137.5t26 -141.5t36 -133t59.5 -111.5t98.5 -77t150.5 -28.5q10 0 33.5 1t25.5 1q20 4 67 17l103 29l121 34l122 36l104 30q46 13 69 22q33 10 83 29.5t96 40.5 l80 35q34 15 34 20v100q-117 0 -228.5 -29.5t-222 -64.5t-222.5 -64.5t-226 -29.5q-70 0 -108 35.5t-57.5 95t-25.5 135.5t-10 154.5t-12.5 154.5t-32 135.5t-69.5 95t-124 35.5q-20 0 -43.5 -11t-43 -29.5t-30.5 -40.5q-8 -17 -9 -33q0 -6 1 -12z" />
<glyph unicode="m" horiz-adv-x="1681" d="M20 166q0 -59 21.5 -72.5t58.5 -13.5q72 0 110 28.5t56.5 70.5t22.5 91t10 91t21.5 71t54.5 29q4 0 11 -1t11 -1l59 -90q38 -57 84 -112.5t96 -96.5t95 -41q4 0 20.5 2t20.5 4q55 45 107 115l102 143q51 74 102.5 140.5t106.5 103.5q57 -31 90 -86.5t55.5 -121t41 -134 t46 -124t71.5 -90t118 -34.5q31 0 61.5 6t54 21.5t38 41t14.5 62.5q0 45 -32 86t-75 81l-86 80q-43 40 -63 85q-16 35 -32.5 95t-38 130t-48.5 142.5t-61.5 132t-78.5 96.5t-100 37q-45 0 -74.5 -36t-50 -85t-34 -99.5t-25.5 -76.5q-8 -18 -32 -67l-50 -102l-50 -102 q-24 -47 -34 -65q-6 0 -22.5 -1t-20.5 -1q-57 0 -96 47t-72 116.5t-64.5 151.5t-70.5 151.5t-91 116.5t-128 47q-29 0 -69 -22.5t-75.5 -54t-60.5 -68.5t-25 -65v-752z" />
<glyph unicode="n" horiz-adv-x="1671" d="M2 113q92 0 153.5 31.5t101.5 79.5t62.5 103.5t40 103.5t35 80t43.5 32q2 0 14 -5l24 -12q13 -6 26.5 -13t19.5 -11l77 -52l119 -81l139 -96l138 -96l118 -82l77 -54l24 -8q18 -6 38 -13.5t38.5 -12.5t24.5 -7q2 0 10 -1t12 -1q63 0 121 34t102 86t69.5 116.5t25.5 123.5 q0 96 -34 184.5t-74 173.5t-73.5 171t-33.5 178q0 27 7 48.5t16.5 44t16.5 46t7 51.5v39q0 23 -6 41.5t-19.5 31.5t-40.5 13q-57 0 -107 -22.5t-88 -59t-59.5 -87t-21.5 -105.5q0 -98 32 -185l68 -180q37 -92 69 -196.5t32 -235.5q-113 0 -210.5 54.5t-183.5 137.5t-164 178 l-152 178q-75 83 -149.5 137.5t-154.5 54.5q-61 0 -109.5 -55.5t-85.5 -143.5t-62.5 -195.5t-42 -211t-23.5 -192.5t-7 -138z" />
<glyph unicode="o" horiz-adv-x="1003" d="M14 401q0 -16 1 -41l2 -49q1 -25 2 -42t1 -19l168 -168q2 -2 25 -4t50 -4l56 -4q29 -2 46 -2q104 0 214.5 20.5t200.5 68.5t148.5 129t58.5 201q0 74 -41 164t-106.5 168t-148.5 130t-169 52q-125 0 -220 -54t-158.5 -141t-96.5 -194t-33 -211zM225 432q0 41 15.5 90 t43 91t66.5 71t86 29t107.5 -22.5t113 -61.5t88 -88t35.5 -103q0 -61 -30.5 -100t-77.5 -59.5t-102.5 -27.5t-102.5 -7q-45 0 -88 9t-77 30.5t-55.5 57.5t-21.5 91z" />
<glyph unicode="p" horiz-adv-x="1044" d="M18 580q0 -23 18.5 -71t49.5 -108.5t70 -124t77.5 -117t76.5 -87t65 -33.5q18 0 49 12t60.5 31.5t52 42t26.5 41.5q2 6 -4 30.5t-14 53.5l-16 53q-7 25 -7 31q-2 2 -2 18v27q0 53 38 91t93.5 69.5t122 63.5t121.5 73t93 99.5t38 142.5q0 86 -45 159.5t-117.5 134 t-166 107.5t-188.5 80t-186.5 49t-158.5 16q-29 0 -60.5 -3t-42.5 -42q-16 -209 -29.5 -418.5t-13.5 -420.5zM311 1069q0 16 1 34.5t7.5 34t19.5 24.5t36 9q43 0 111.5 -20.5t133 -54t111.5 -80.5t47 -98q0 -43 -36.5 -87.5t-87 -81t-104.5 -60t-91 -23.5q-43 0 -72 52 t-45 120.5t-23.5 135t-7.5 95.5z" />
<glyph unicode="q" horiz-adv-x="1294" d="M20 543q0 -80 57.5 -158t141.5 -141.5t177 -106.5t167 -53h31q25 0 53.5 1t52.5 1q25 0 31 -2t31 -21l52 -39l52 -41q25 -19 31 -24q2 -2 17.5 -3t23.5 -1q14 0 46 38t69 97l76 130q40 71 73 136.5t53.5 116.5t20.5 70q0 59 -29.5 111.5t-79 94.5t-112 74.5t-128 54 t-128 33t-109.5 11.5q-55 0 -125.5 -6.5t-144.5 -21.5t-145.5 -42t-128 -69t-91.5 -101t-35 -139zM266 612q0 55 44 85t105.5 42.5t126 14.5t105.5 2q47 0 118 -4t137.5 -22.5t114.5 -56.5t48 -108q0 -20 -12.5 -51t-30.5 -59.5t-41 -51t-41 -26.5q-6 0 -24.5 5t-38.5 13 l-39 16q-18 7 -25 7q-4 2 -30.5 3t-39.5 1q-39 0 -55 -20.5t-27.5 -45t-27 -45t-49.5 -20.5q-59 0 -115.5 28.5t-101.5 74.5t-73 103.5t-28 114.5z" />
<glyph unicode="r" horiz-adv-x="1595" d="M18 416q0 -37 9.5 -95.5t30 -117t52 -104.5t78.5 -58q2 0 12.5 4t22.5 11l26 15l21 11q6 4 31 23l52 42l53 41q25 18 32 21q13 3 30 3q25 0 58 -7q55 -12 117 -30.5l122 -35t101 -16.5q102 0 194.5 3t185.5 8t191 13l212 19l37 15q23 9 43 21.5t34.5 30t14.5 37.5 q0 4 -1 13l-1 8q-4 8 -20.5 23.5t-22.5 19.5q-80 33 -184.5 44t-210.5 12h-30q-89 0 -170 -5l-157 -10q-6 4 -21.5 19.5t-19.5 23.5q-2 0 -2 8v12v8q0 8 2 13l108 120q58 65 108 135t84 148t34 162q0 102 -62.5 177t-152.5 124t-191.5 72.5t-179.5 23.5q-131 0 -232.5 -46 t-175 -122.5t-124 -179t-81 -214t-44 -226.5t-13.5 -217zM352 678v94v37q0 27 1 57.5t1 57.5v37q8 16 36 47.5t60.5 64.5t64.5 60.5t48 35.5l14 1q13 1 29 1q18 0 35.5 1.5t30.5 1.5q55 0 118.5 -5.5t115.5 -27t87 -62.5t35 -112q0 -84 -63.5 -180.5t-157.5 -178.5 t-199.5 -137t-189.5 -55h-12q-6 0 -9 2q-20 45 -29.5 88t-12.5 86t-3 86z" />
<glyph unicode="s" horiz-adv-x="1128" d="M14 961q0 -70 59.5 -129.5t148.5 -109.5t193.5 -96t193.5 -90t148.5 -88.5t59.5 -93.5q0 -25 -10 -38t-26.5 -19t-36 -8t-35.5 -2q-12 0 -35 1t-27 3q-14 4 -69 28l-119 54l-119 54q-55 26 -70 32l-8 1q-8 1 -12 1q-25 0 -38 -10.5t-19.5 -26.5t-7.5 -35.5t-1 -38.5 q0 -82 56.5 -135t136.5 -84t168 -43t149 -12t135 6t136.5 31.5t104.5 75t42 135.5q0 98 -43 163.5t-112.5 112.5t-154.5 82l-170 72q-85 37 -159 85t-119 122q41 66 112 96t144 30q37 0 53.5 -26.5t30 -59t34 -59.5t65.5 -27q43 0 94 35t96 79t80 86l45 54q0 4 2 20.5 t2 20.5q0 45 -18.5 73t-69.5 52q-12 0 -42 1t-63.5 2t-62.5 1h-41q-129 0 -237.5 -15t-203.5 -54t-181.5 -104.5t-172.5 -164.5q-2 -4 -4 -20t-2 -20z" />
<glyph unicode="t" horiz-adv-x="1404" d="M18 920q0 -39 7.5 -66t35.5 -61q82 16 148 16q40 0 75 -6q89 -16 145 -62.5t88 -113t53.5 -140t38 -146.5t43 -131t69.5 -95t115 -37q74 0 91 30.5t17 102.5q0 80 -27.5 154.5t-60.5 146.5t-60.5 146.5t-27.5 154.5q0 57 52 90t133 50.5t180.5 26.5t192.5 20.5t169 30 t113 54.5l43 41l-43 41q-2 0 -22.5 1t-46.5 2t-54 1h-43q-354 0 -694 -46t-687 -124q-35 -12 -39 -33t-4 -48z" />
<glyph unicode="u" horiz-adv-x="1169" d="M20 709q0 -115 57.5 -220.5t148.5 -187.5t202 -130t217 -48q117 0 210 20.5t158.5 69.5t101.5 129t36 199q0 39 -2 98t-9 124.5t-21.5 131.5t-40 119t-64.5 86t-92 33q-76 0 -94.5 -30t-18.5 -102q0 -63 8 -116.5t25.5 -105.5t42.5 -109l55 -127q2 -13 2 -26 q0 -39 -19 -71q-26 -41 -68 -66.5t-92 -37.5t-93 -12q-82 0 -138.5 38t-97.5 94t-71.5 121.5t-61.5 122t-67.5 94.5t-88.5 38q-23 0 -44 -11.5t-39.5 -30t-30 -40.5t-11.5 -47z" />
<glyph unicode="v" horiz-adv-x="1148" d="M0 711q0 -66 30.5 -141.5t82 -150.5t119 -143.5t139 -122t143.5 -85t133 -31.5t101 31.5t65 83t37 113t17 123t8.5 113.5t7.5 83q12 86 48 151.5t83 114.5t98 87l93 70q42 32 70 60.5t28 60.5q0 84 -84 84q-156 0 -265.5 -69.5t-183.5 -179t-117 -243.5t-63 -261 q-4 0 -21.5 -1t-21.5 -1q-57 0 -100.5 28.5t-77 70.5t-64.5 91t-62.5 91t-68.5 71t-86 29q-31 0 -49.5 -9.5t-26.5 -27t-10 -40.5t-2 -50z" />
<glyph unicode="w" horiz-adv-x="1474" d="M18 1133q0 -53 10.5 -154.5t31 -223.5t50 -249t66.5 -230.5t82 -170t96 -66.5q63 0 108.5 27.5t81.5 70.5t64.5 94.5t59 97.5t65.5 81.5t82 48.5q2 0 12.5 -4t23.5 -12l27 -14l21 -11l67 -50l101 -76l100 -76l66 -50q4 -2 20.5 -4t20.5 -2q33 0 59.5 15t46 41t35 56.5 t27.5 61.5v45q0 33 1 69.5t1 69.5v45q0 80 -7 158t-16.5 154.5t-16.5 153.5t-7 157q0 57 20.5 91t46 62.5t46 59.5t20.5 80q0 43 -9.5 65.5t-28.5 33.5t-49 12t-71 1q-35 0 -73.5 -10t-71.5 -31.5t-55.5 -53.5t-22.5 -77v-829l-334 287q-2 2 -17.5 4t-21.5 2q-53 0 -90 -38 t-64.5 -95.5t-50.5 -122.5l-44 -123q-22 -57 -48 -95t-61 -38q-4 0 -11.5 2t-9.5 2q-4 8 -10 33l-13 51l-12.5 50t-7.5 34q-4 23 -10 68l-14 104l-18 121l-17 120l-14 104q-6 46 -11 68l-166 166q-41 -27 -63.5 -70.5t-22.5 -90.5z" />
<glyph unicode="x" horiz-adv-x="1583" d="M16 836q0 -47 29 -84t72 -68t93 -58.5t93 -58t71.5 -67.5t28.5 -84q0 -35 -17 -54.5t-42 -33t-55.5 -24.5t-55 -28.5t-42 -45t-17.5 -72.5q80 0 151.5 21.5t137.5 46.5l125 47q59 22 117 22q31 0 52 -2t42.5 -6t45 -13.5t54.5 -23.5q18 -8 58 -28l90 -44l103 -52l103 -52 l88 -44q39 -19 58 -30q17 -5 30 -5q16 0 26 7q19 12 26.5 34.5t8.5 47.5t1 41q0 10 -3 42t-5 42q-8 4 -36 15l-65 28q-37 16 -78.5 38.5t-77.5 49.5t-58.5 58.5t-22.5 64.5q0 61 44 111.5t109.5 92.5t143.5 77.5t143.5 69.5t109.5 70t44 74q0 55 -29 73t-82 18 q-39 0 -62.5 -4.5t-46 -14.5t-49.5 -26l-71 -43l-64 -38l-96 -59l-113 -69l-112 -70l-95 -59l-63 -39q-6 0 -20.5 -1t-32.5 -1q-16 0 -30.5 -1t-20.5 -1q-63 0 -117.5 22.5t-105 55t-96.5 71.5t-95 72t-101.5 55.5t-113.5 22.5q-49 0 -78 -16.5t-29 -69.5z" />
<glyph unicode="y" horiz-adv-x="1128" d="M16 1061q0 -80 33 -171t89.5 -170t133 -131t164.5 -52q39 0 70 3t60.5 12t58 27.5t65.5 47.5q31 -6 39 -52.5t9 -112t3 -139t20.5 -137t59.5 -105.5t119 -42q20 0 50 7t56.5 20.5t45 33t18.5 45.5q0 4 -1 13l-1 8q-18 37 -41 66.5t-41 60.5t-31.5 64.5t-13.5 78.5 q0 170 22.5 340t22.5 342q0 43 -3 90t-16.5 85t-44 63.5t-85.5 25.5q-6 0 -31 -1t-31 -3l-30 -81l-45 -119q-26 -66 -57.5 -134.5t-69.5 -126t-82 -93.5t-91 -36q-55 0 -88 32t-55.5 79t-37.5 102.5t-34.5 102.5t-47 78.5t-73.5 31.5q-37 0 -54 -12t-25.5 -33.5t-8.5 -50.5 v-57z" />
<glyph unicode="z" horiz-adv-x="1560" d="M14 874q0 -45 34 -63t77 -18q70 0 136.5 20.5t134 46t137 46t145.5 20.5q12 0 35 -1l44 -2q22 -1 38 -2t20 -1l41 -43q-47 -57 -117.5 -106.5t-149.5 -96.5l-159 -95q-80 -48 -143.5 -103.5t-103.5 -122t-40 -148.5q0 -72 54.5 -108t129.5 -49q69 -12 139 -12h11 q76 1 119 1h45q29 0 57.5 1t50 2t23.5 1q14 2 59 11l106 23l128 28l128 29l105 23q45 9 60 11q26 4 60 4q23 0 48 -2l47 -2q40 0 78 5q59 7 102.5 37t43.5 105q0 47 -15.5 77t-68.5 30q-8 0 -24.5 -1t-20.5 -1l-102 -20l-154 -29l-183 -35l-182 -35l-154 -30l-102 -19 l-209 41q-4 4 -4 18q0 45 50 86t126 82l163 85q87 44 163 98.5t126 120t50 147.5q0 98 -48 142t-121 58q-54 11 -114 11q-22 0 -45 -1q-86 -5 -159 -5q-43 0 -112 -3.5t-145.5 -12.5t-154.5 -26.5t-140.5 -46t-102.5 -71t-40 -99.5z" />
<glyph unicode="&#xaa;" horiz-adv-x="1187" d="M16 283q0 -20 1 -43l2 -44q1 -22 1 -30q4 -23 20.5 -32t37 -12t40 -2t32.5 1q59 0 96 21.5t65 55.5l59 71q30 38 77 72t119.5 55.5t187.5 21.5q45 0 72.5 -28t47 -71t34 -91t34 -91t48 -70.5t73.5 -27.5q59 0 96 20.5t37 83.5q0 39 -14.5 69t-33 58.5t-32.5 58t-14 70.5 q0 33 5 58.5t20.5 47t40 40t65.5 39.5q-10 27 -41 41t-64.5 22t-63.5 11.5t-40 9.5q-55 27 -99 84t-82 127l-75 143q-37 74 -79 134.5t-92 99t-118 38.5q-61 0 -107 -38.5t-79 -98t-56.5 -133.5t-40 -143.5t-28.5 -127t-23 -85.5q-25 -66 -48 -102l-41.5 -66.5t-29 -70.5 t-10.5 -116v-30zM432 840q-1 10 -1 19q0 19 3 37q4 28 18.5 47.5t49.5 19.5q2 0 9 -1t11 -1l34 -50l50 -74l50 -77q24 -37 32 -51q2 0 3 -8.5t1 -12.5q0 -27 -13 -40t-32.5 -19t-42.5 -6h-41q-49 0 -75.5 8t-39 27.5t-13.5 52t-1 82.5q0 18 -2 47z" />
<glyph unicode="&#xb2;" horiz-adv-x="1296" d="M16 942q0 -51 16.5 -81t73.5 -30q49 0 100.5 34t105 74t110.5 74t123 34q23 0 36 -9.5t19 -25t7 -33.5t1 -35q0 -80 -28.5 -155.5t-71.5 -149.5t-93 -144.5t-93 -138t-72 -131t-29 -125.5q0 -59 24.5 -79.5t108.5 -20.5q104 0 234.5 28.5t265.5 65.5l266 71 q131 34 238 44q35 10 40 33.5t5 50.5t-5 49.5t-40 34.5h-37q-27 0 -57.5 1t-57.5 1h-37q-141 0 -278 -18.5t-279 -18.5q0 96 39 187.5t86 181.5t86 184t39 197q0 47 -18.5 86t-51 65.5t-74.5 40.5t-87 14q-80 0 -185.5 -17t-200.5 -59t-162 -111t-67 -169z" />
<glyph unicode="&#xb3;" horiz-adv-x="1128" d="M10 1202q70 0 136.5 8.5t133 18.5t134 18t135.5 8q4 0 26.5 2.5t48 -1t46 -12.5t20.5 -34q0 -37 -26.5 -75.5t-66.5 -77.5t-90 -75t-96 -65.5t-84 -51.5l-57 -31q0 -6 -1 -31t-1 -31q0 -49 34 -85t87 -63.5t118.5 -48t131.5 -39t123 -37t94 -40.5q2 -4 3 -21.5t1 -21.5 q0 -45 -18.5 -72t-69.5 -53q-12 0 -41 -1t-63 -1q-33 0 -63 -1t-42 -1q-59 0 -113.5 7t-108.5 16l-108.5 17.5t-111.5 8.5q-35 0 -69 -10.5t-34 -55.5q0 -53 39 -89t99.5 -56.5t134.5 -30.5t141.5 -14t120.5 -3t74 1h53q39 0 83 1t82 2t54 1q61 18 102 53t66 81t35 100.5 t10 113.5q0 74 -25.5 121t-63.5 76.5t-82 49t-82 40t-63.5 47.5t-25.5 72q0 51 26.5 92t59.5 81t59.5 83t26.5 98q0 86 -31.5 134t-81 69.5t-111 25.5t-122.5 4q-41 0 -100.5 -2t-125 -10t-130 -22.5t-115.5 -39t-83 -61.5t-32 -86z" />
<glyph unicode="&#xb9;" horiz-adv-x="501" d="M18 858q0 -184 42 -372l85 -363q39 -33 71 -38t77 -5q35 0 68.5 8t60.5 25.5t43 45t16 68.5q0 43 -17.5 93.5t-39.5 102.5l-43 103q-20 51 -27 99q-4 29 -10 100.5t-12 151t-12.5 150.5t-6.5 99q-27 53 -53.5 72t-71.5 19q-61 0 -96 -40t-51 -96.5t-19.5 -118 t-3.5 -104.5z" />
<glyph unicode="&#xba;" horiz-adv-x="1003" d="M14 401q0 -16 1 -41l2 -49q1 -25 2 -42t1 -19l168 -168q2 -2 25 -4t50 -4l56 -4q29 -2 46 -2q104 0 214.5 20.5t200.5 68.5t148.5 129t58.5 201q0 74 -41 164t-106.5 168t-148.5 130t-169 52q-125 0 -220 -54t-158.5 -141t-96.5 -194t-33 -211zM225 432q0 41 15.5 90 t43 91t66.5 71t86 29t107.5 -22.5t113 -61.5t88 -88t35.5 -103q0 -61 -30.5 -100t-77.5 -59.5t-102.5 -27.5t-102.5 -7q-45 0 -88 9t-77 30.5t-55.5 57.5t-21.5 91z" />
<glyph unicode="&#xff;" horiz-adv-x="12244" d="M16 1380q0 -68 38 -113.5t91 -95.5q29 -203 58.5 -375.5t67.5 -335.5t88.5 -326t119.5 -343q20 -53 46 -112.5t62 -109.5t85 -83t119 -33q66 0 110.5 23.5t72 63.5t40 94.5t12.5 115.5q0 41 -7 80t-16.5 78t-16.5 79t-7 81v55q0 27 8 47t26.5 31.5t53.5 11.5q25 0 40 -4 t27.5 -13.5t24.5 -26.5l31 -44l43 -65l63 -99l63 -101q30 -48 40 -69q8 -2 31.5 -4t31.5 -2q16 0 66 26l118 63l148 83q80 45 161 83t154.5 63.5t128.5 25.5q43 0 71 -22.5t46.5 -55.5t32.5 -71.5t31.5 -71.5t42 -55.5t65.5 -22.5q29 0 51.5 5t32.5 40q-82 47 -129 98.5 t-47 132.5q0 25 5 49.5t20.5 40t42 20.5t67.5 -7q-4 8 -19.5 23.5t-23.5 19.5q-14 4 -49 10l-75 13q-40 7 -75.5 12.5t-50.5 5.5q-12 35 -32.5 69.5t-51.5 55.5q8 -12 12.5 -41t4.5 -64q0 -33 -4 -62.5t-13 -41.5q-25 -33 -68.5 -51.5t-96 -26.5t-102.5 -9t-87 -1 q-8 0 -29.5 1t-44.5 1t-44 1t-29 1q-6 4 -21.5 20.5t-19.5 22.5l-1 7q-1 7 -1 11t1 12.5t1 10.5q2 29 10 103.5t20.5 167.5t27.5 193.5t35.5 183.5t43 137.5t49.5 54.5q31 0 60.5 -32t56 -80t52.5 -107.5t47.5 -116t42 -102.5t36.5 -66v125q53 -43 105.5 -64.5t121.5 -21.5 q109 0 211.5 34.5t200.5 86t195.5 112t196.5 111.5t201.5 86t211.5 35q31 0 52.5 -6.5t38.5 -21.5t34 -40l39 -61q-6 -20 -9.5 -73.5t-3.5 -115.5q0 -59 3.5 -112.5t9.5 -73.5q2 -10 27 -41l55 -66l54 -64q26 -30 32 -38q12 -23 17 -46.5t11 -47t18.5 -43t37.5 -31.5 q35 6 74.5 22.5t71.5 42t50.5 62.5t11.5 82q10 0 37 1t56 1q31 0 57.5 1t36.5 1q55 0 144 -4t175 -26.5t147.5 -68.5t61.5 -132q0 -66 -43 -103t-103.5 -55.5t-125 -24.5t-109.5 -8q-25 -2 -84 -3t-127 -1q-66 0 -125 1t-82 3l125 -43h670q8 6 32 18l50 27q27 14 50.5 24.5 t33.5 14.5q2 2 16 2h23q55 0 107.5 -13.5t104.5 -30.5t105.5 -30.5t108.5 -13.5q27 0 75 3t95 12.5t82 25.5t35 45v53q-43 0 -80 -9t-73 -19.5t-75 -19.5t-86 -9q-61 0 -111.5 5t-87 23.5t-56 56.5t-19.5 105q0 33 4 74t17.5 77t39 60.5t70.5 24.5q4 0 35 -11l74 -29l96 -38 l95 -39l77 -33q33 -14 39 -20l152 -122q77 -60 160 -108.5t175 -78t199 -29.5q51 0 99 7t94 16.5t92.5 16.5t95.5 7q51 0 79.5 -38t45 -93t26.5 -121.5t25.5 -122t41 -93.5t72.5 -38q4 0 13 1l8 1q8 4 23.5 19.5t19.5 21.5v19q0 37 -18.5 102.5t-46 146t-61.5 169.5l-67 174 l-60 154q-28 71 -40 114q-49 166 -73.5 348t-35 366.5t-12.5 364.5t-4 342q2 31 -11 52.5t-34.5 33.5t-47.5 17.5t-48 5.5q0 -205 15.5 -409t34.5 -406.5t34.5 -407.5t15.5 -412v-30v-43q0 -23 -1 -44.5t-1 -29.5q-37 -35 -67.5 -39t-75.5 -4q-76 0 -148.5 15.5t-129 50 t-91.5 91t-35 140.5q0 63 20.5 119.5t46.5 112t46 111.5t20 118q0 66 -46 97.5t-105 31.5q-66 0 -113 -36t-79.5 -94.5t-55 -129t-35 -141t-19.5 -132t-9 -100.5q-41 25 -67 58.5t-45 71.5l-37 75q-17 37 -44 65.5t-65.5 47t-98.5 18.5q-61 0 -109 -29t-88 -71t-73 -91 l-64 -91q-31 -42 -61.5 -70.5t-62.5 -28.5q-4 0 -11.5 1t-9.5 1l-61 31l-107 53l-106 53l-62 31q-35 16 -98.5 29.5t-125 32t-107.5 48t-46 78.5q0 23 24.5 47.5t62.5 51.5l82 57q44 31 82 66.5t62.5 78.5t24.5 94q0 84 -41 167t-107.5 158t-154.5 138.5t-181 109.5 t-185.5 72.5t-169.5 26.5q-18 0 -44 -4t-47.5 -13t-37 -25.5t-15.5 -43.5v-418q0 -4 -26.5 -15t-63.5 -24.5t-76 -25.5t-65 -19q-18 -4 -76 -13l-135 -22l-165 -26.5t-165 -27.5l-135 -22q-57 -9 -76 -13l-159 -29q-89 -16 -174 -47t-154.5 -83t-98.5 -134q-23 31 -42 93 l-41 137l-44 153q-23 78 -49 142t-60 105t-75 41q-29 0 -51.5 -59t-44 -147.5t-42 -191.5t-46 -191t-57 -147.5t-74.5 -59.5h-668q-29 0 -58.5 30.5t-58 78.5t-54.5 108.5t-44 120t-29.5 111.5t-11.5 85q0 94 83 166t211 126t283.5 91t301 58.5t263.5 32t169 10.5 q0 18 -21.5 40.5t-31.5 28.5q-31 2 -92.5 5t-139.5 8.5t-165 9.5t-165 8l-140 7q-62 3 -91 3h-43q-35 0 -82 1t-94 1h-74h-59q-41 0 -88 -1t-88 -1h-58q-35 -31 -104.5 -66.5t-140 -76.5t-124 -88.5t-53.5 -102.5zM2845 369q0 -84 19.5 -148.5t66.5 -124t141 -137.5 q6 4 18 15l26 25q13 13 23.5 25.5t14.5 18.5q2 0 3 7t1 11t-1 12.5t-3 10.5l-209 502h-100v-217zM3944 1075q0 25 2.5 56.5t11.5 59.5t30.5 46t62.5 18q43 0 91 -18t90 -49t68.5 -73t26.5 -91q0 -43 -27.5 -91t-68.5 -89t-89 -67.5t-91 -26.5q-33 0 -53.5 43t-32.5 98 t-16.5 108t-4.5 76zM7459 774q0 -74 48 -119t114.5 -72.5t137.5 -44t118 -36.5q25 -10 85 -39l127 -63l125 -64l80 -43h84v43l-38 19l-91 46l-110 55l-94 46q-14 6 -48 17t-76 26.5t-87 36t-83 46t-62.5 57.5t-24.5 69q0 4 2 20.5t2 20.5q49 8 100 22l102 29 q51 14 102.5 25.5t100.5 11.5q45 0 74 -21.5t54.5 -47.5t55 -47.5t78.5 -21.5q66 0 133.5 25t123 68t90 101t34.5 128t-26.5 88.5t-91.5 18.5q-90 0 -195 -4.5t-213.5 -17.5t-215 -37.5t-202.5 -66.5t-177 -104.5t-136 -148.5v-21zM7791 70q0 -117 50 -215.5t133 -169 t188.5 -109.5t215.5 -39q88 0 179.5 11.5t163 46t117.5 101t46 175.5q0 86 -39 153.5t-99 119t-135 88t-149 61.5q0 -2 -1 -10.5t-1 -10.5q0 -31 24.5 -52t62.5 -41.5t82 -42t82 -53.5t62.5 -77t24.5 -110q0 -66 -29.5 -117t-77.5 -85t-107.5 -51.5t-121.5 -17.5 q-104 0 -170.5 47t-110.5 117t-70 153l-46 152q-20 70 -44 117t-60 47q-37 0 -68 -16.5t-54.5 -43t-35.5 -60t-12 -68.5zM9003 778q0 -57 15.5 -154.5t41 -212t62.5 -232.5t79 -213t88 -155.5t93 -60.5q84 0 188.5 24.5t195.5 73t153.5 121t62.5 168.5q-74 0 -142.5 -12 t-137.5 -28l-137 -30q-69 -15 -142 -24q-43 20 -68.5 91t-43 165t-32 196.5t-37 188.5t-57.5 142.5t-92 56.5q-55 0 -72.5 -28t-17.5 -77zM9505 1442q0 -2 1 -9.5t1 -11.5q92 -2 145 -42t87 -86t59.5 -85t64.5 -39h10q8 0 11 2q4 2 22 15l40 26l40 27q18 12 23 14q2 2 10 3 t12 1t11.5 -1t7.5 -3l43 -30l64 -49l63 -52l40 -35q47 23 68 52.5t21 77.5q0 6 -2.5 20t-4.5 16l-229 232l229 229v49q-29 0 -61.5 -11t-64.5 -27l-63 -30q-32 -15 -60 -22q-2 -2 -11 -2h-10h-12q-6 0 -10 2q-10 18 -40 66l-64 101l-63 102l-42 65l-20 21q-15 16 -21 20 v-418q0 -27 -21.5 -41t-54.5 -24.5t-72 -18.5t-71.5 -20.5t-54 -31.5t-21.5 -52zM10088 558q2 -28 2 -46q0 -70 2.5 -129t7.5 -117.5t13 -122t21 -143.5q23 -35 64.5 -59.5t82.5 -24.5q20 0 39.5 16.5t34 39t22.5 47t8 42.5q0 23 -3 77.5t-11 122t-23.5 140t-41 133 t-62.5 99.5t-88 39q-33 0 -47 -18.5t-18.5 -43t-2.5 -52.5zM10500 256q0 -74 8 -149.5t29.5 -137t60.5 -100.5t103 -39q70 0 108.5 41t56 100.5t20.5 125t1 112.5q4 2 20.5 4t20.5 2q49 0 111 -53l132 -118q71 -65 146.5 -118t153.5 -53q63 0 103 25.5t62.5 67.5t32 95.5 t11.5 106.5q0 6 1 64.5t2 135t1 154.5v127v94q0 70 -1 146l-2 144q-1 69 -1 95q-12 -90 -33 -218t-46.5 -267t-58 -275.5t-71.5 -242.5q-4 0 -20.5 -1t-20.5 -1q-80 0 -135.5 71.5t-100.5 179t-85 233.5t-85 233.5t-102 179.5t-137 72q-63 0 -107.5 -32t-76 -82t-50 -115.5 t-29 -132t-13.5 -129t-3 -109.5q0 -37 -3 -99.5t-3 -136.5zM11663 1380h101l6 -28q6 -29 13 -76l17 -107l18 -119q9 -60 16.5 -116.5t13.5 -97.5q2 -10 5 -42l7 -75q4 -43 8 -92t8 -92l8 -75q3 -32 5 -42l13 -77l21 -119l27 -138l27 -138l22 -119q10 -52 17 -77 q4 -14 13 -36.5t22.5 -43t31 -35t37.5 -14.5q49 0 79 43t30 88q0 4 -31 46t-69 99.5t-71.5 120t-41.5 107.5q-35 190 -57.5 406.5t-41 433.5t-34 420.5t-35.5 369.5q-2 12 -6.5 47t-15.5 72t-31.5 65.5t-53.5 28.5q-4 0 -11 -1t-7 -3q-4 -6 -11.5 -23.5t-14.5 -38t-12 -38 t-5 -25.5q-2 -27 -4 -92.5t-5.5 -138t-5.5 -138t-2 -90.5z" />
<glyph unicode="&#x152;" horiz-adv-x="2615" d="M1308 479q0 -115 11.5 -197.5t48.5 -137t106.5 -80t186.5 -25.5q12 0 62 1t123 5t161 12.5t176 20.5t170 30.5t143.5 45t92.5 60.5q24 26 24 56q0 10 -2 21q-14 55 -48 71.5t-75 16.5q-8 0 -24.5 -1t-20.5 -3q-8 -2 -38 -15l-65 -27l-67 -28q-31 -12 -39 -14 q-51 -10 -112.5 -18.5t-126 -13.5t-129 -8t-121.5 -3q-43 0 -71 3t-43 15.5t-21.5 38t-6.5 70.5q0 47 9.5 74.5t30 44t53 26.5t79.5 23l67 14l103 24q57 13 121 26l121 26l103 21q46 9 69 14l84 84l-41 41q-4 2 -18.5 3t-33.5 2l-39 2q-19 1 -30 1q-80 0 -156.5 -15.5 t-152.5 -33t-151.5 -32.5t-155.5 -15q-41 0 -72 14t-58.5 31.5t-54 32t-61.5 14.5q-4 0 -12.5 -1t-8.5 -3q-6 -4 -18 -14.5l-26 -23.5l-24 -26q-11 -12 -16 -18q0 -12 -1 -46l-2 -71q-1 -37 -2 -70t-1 -45zM1603 1253q0 -53 29 -70.5t80 -17.5q76 0 157.5 22.5t164.5 52.5 l165 57q82 28 160 40h45q39 0 81 -1t79 -1t47 2q8 2 21.5 12.5t26.5 23.5t23.5 26.5t12.5 21.5q-27 43 -61.5 67.5t-75.5 38t-85 17.5t-89 4q-39 0 -112 -9t-160 -26.5t-177 -43t-164 -58.5t-121 -73t-47 -85zM20 500q0 -80 35 -138.5t91.5 -100.5t128 -68.5t145.5 -42 t145.5 -21.5t124.5 -6q47 0 109.5 11t128 32.5t128 54.5t112 75t79 94t29.5 112q0 117 -66.5 204t-166 143t-213 85t-205.5 29q-80 0 -184.5 -40t-197.5 -104.5t-158 -147.5t-65 -171zM266 432q0 57 28 114.5t73 103.5t102 75t117 29q4 0 11 -1l7 -1q6 -4 31 -23l53 -40 l53 -40q25 -18 31 -22q0 -2 6 -2h13h12q10 0 10 2q6 0 24.5 7t39.5 14l38 14q18 6 25 6q18 -4 41 -27t41 -52.5t30.5 -60t12.5 -49.5q0 -70 -48 -108.5t-114.5 -57t-137.5 -21.5t-118 -3q-41 0 -105.5 2t-126 14t-105.5 42t-44 85z" />
<glyph unicode="&#x153;" horiz-adv-x="2287" d="M1022 983q0 -4 1 -12t1 -10q20 -150 30.5 -274t29 -223t53.5 -174t102.5 -127t176 -83t276.5 -39q37 -2 74 -2q56 0 114 5q95 9 183 38t164.5 79t134.5 130q-10 39 -44 42t-61 3q-57 0 -109 -14.5t-102.5 -31t-103.5 -30.5t-113 -14h-116q-72 0 -142.5 14t-122 49 t-51.5 107q0 49 40 82.5t89 44.5q20 4 67 11l103 15l121 18l121 17l103 14l69 9q6 4 22.5 19.5t20.5 21.5q0 2 1 10t1 12t-1 11l-1 8q-4 4 -16 11l-26 14q-13 7 -25.5 12.5t-16.5 5.5h-668q-8 0 -16 9t-15.5 22.5t-10.5 26.5t-1 24q4 16 24.5 36.5t47.5 39t53.5 32.5 t42.5 19l67 14l103 23l121 27l121 26l103 21q46 9 69 13q35 10 40 33t5 51q0 27 -5 49.5t-40 32.5q-25 -2 -77 -8l-119 -14l-138 -18l-138 -17l-119 -14q-52 -6 -77 -11q-18 -2 -56 -7t-84 -14t-96 -22.5t-90 -33t-67 -47t-27 -62.5zM14 401q0 -16 1 -41l2 -49q1 -25 2 -42 t1 -19l168 -168q2 -2 25 -4t50 -4l56 -4q29 -2 46 -2q104 0 214.5 20.5t200.5 68.5t148.5 129t58.5 201q0 74 -41 164t-106.5 168t-148.5 130t-169 52q-125 0 -220 -54t-158.5 -141t-96.5 -194t-33 -211zM225 432q0 41 15.5 90t43 91t66.5 71t86 29t107.5 -22.5t113 -61.5 t88 -88t35.5 -103q0 -61 -30.5 -100t-77.5 -59.5t-102.5 -27.5t-102.5 -7q-45 0 -88 9t-77 30.5t-55.5 57.5t-21.5 91z" />
<glyph unicode="&#x2000;" horiz-adv-x="1024" />
<glyph unicode="&#x2001;" horiz-adv-x="2048" />
<glyph unicode="&#x2002;" horiz-adv-x="1024" />
<glyph unicode="&#x2003;" horiz-adv-x="2048" />
<glyph unicode="&#x2004;" horiz-adv-x="681" />
<glyph unicode="&#x2005;" horiz-adv-x="512" />
<glyph unicode="&#x2006;" horiz-adv-x="339" />
<glyph unicode="&#x2007;" horiz-adv-x="339" />
<glyph unicode="&#x2008;" horiz-adv-x="256" />
<glyph unicode="&#x2009;" horiz-adv-x="409" />
<glyph unicode="&#x200a;" horiz-adv-x="112" />
<glyph unicode="&#x2013;" horiz-adv-x="1024" d="M205 512v205h614v-205h-614z" />
<glyph unicode="&#x2014;" horiz-adv-x="2048" d="M205 512v205h1638v-205h-1638z" />
<glyph unicode="&#x2026;" horiz-adv-x="1124" d="M766 227q0 -41 16.5 -69.5t44 -46t62.5 -25.5t74 -8q25 0 45.5 2t36.5 10t31.5 26.5t27.5 49.5q-29 49 -52 82t-48 52t-53.5 27.5t-69.5 8.5q-66 0 -90.5 -21.5t-24.5 -87.5zM391 227q0 -41 16.5 -69.5t44 -46t62.5 -25.5t74 -8q25 0 45.5 2t36.5 10t31.5 26.5t27.5 49.5 q-29 49 -52 82t-48 52t-53.5 27.5t-69.5 8.5q-66 0 -90.5 -21.5t-24.5 -87.5zM16 227q0 -41 16.5 -69.5t44 -46t62.5 -25.5t74 -8q25 0 45.5 2t36.5 10t31.5 26.5t27.5 49.5q-29 49 -52 82t-48 52t-53.5 27.5t-69.5 8.5q-66 0 -90.5 -21.5t-24.5 -87.5z" />
<glyph unicode="&#x202f;" horiz-adv-x="409" />
<glyph unicode="&#x205f;" horiz-adv-x="512" />
<glyph unicode="&#x2122;" horiz-adv-x="3250" d="M1419 272q0 -8 1 -29.5t1 -43.5q0 -23 1 -44.5t1 -29.5q4 -6 19.5 -21.5t21.5 -19.5q2 0 9.5 -1t11.5 -1q98 0 160.5 54t100.5 133t58 165l37 152q29 -27 63 -71l71 -96l79 -106q41 -53 85 -96t90 -70.5t94 -27.5q82 0 133 41t83.5 102.5t52 133t39 133t44 102.5t65.5 41 q2 0 9.5 -1t11.5 -1q8 -27 32 -92l50 -140l50 -139q24 -66 34 -90l44 -109q24 -59 55.5 -110t76.5 -85t110 -34q86 0 145.5 29.5t112.5 99.5q-20 35 -54 52.5t-70.5 31.5t-70.5 31.5t-56 52.5q-55 84 -90 169t-62 169l-51 166q-25 82 -61.5 160.5t-93 153.5t-144.5 142 q-6 2 -30.5 3.5t-31.5 1.5q-66 0 -104.5 -38t-63 -98.5t-38.5 -135.5l-28 -149q-13 -75 -30.5 -141.5t-48.5 -109.5q-4 -2 -11 -3t-9 -1q-66 0 -111 59t-80 147.5t-66.5 193t-70.5 192.5t-91 147t-128 59h-11q-6 0 -8 -2l-250 -249q-2 -2 -8 -35t-14 -84l-17.5 -115.5 t-17.5 -128.5l-15 -123l-12 -100q0 -4 -1 -21.5t-1 -42.5q0 -23 -1 -46.5t-1 -35.5zM18 940q0 -27 18.5 -47.5t46.5 -33.5t56.5 -20.5t50.5 -7.5q39 0 86.5 23t96.5 51l98 58q49 29 92 38q272 70 545.5 84.5t554.5 14.5q0 63 -44 102t-105.5 59.5t-128 26.5t-109.5 6 q-37 0 -143.5 -8t-247 -25.5t-293 -45t-280.5 -66.5t-211 -91t-83 -118zM436 606q0 -35 9.5 -90t29 -118.5t47 -128t65.5 -117t84 -85t101 -32.5q27 0 52.5 1t47 10t39 26.5t29.5 52.5q-25 35 -51 93l-56 123l-62 131q-32 67 -65.5 120t-70.5 87t-74 34q-43 0 -84 -29 t-41 -78z" />
<glyph unicode="&#xe000;" horiz-adv-x="1050" d="M0 1050h1050v-1050h-1050v1050z" />
<glyph unicode="&#xfb01;" horiz-adv-x="1525" d="M1167 395v-102q0 -55 13.5 -103.5t45 -80t95.5 -31.5q31 0 58.5 4t51 18.5t42 40t32.5 66.5q4 11 4 34q0 12 -1 27q-3 45 -14 100.5t-29.5 116t-43 110.5t-55.5 83t-68 33q-55 0 -82.5 -37t-38.5 -88q-10 -47 -11 -96q0 -19 0.5 -52t0.5 -43zM16 743q0 -39 12.5 -106.5 t34 -145t52 -159.5t68.5 -147.5t82 -107.5t91 -42q70 0 111 43t57 103q15 54 15 112v14q-2 66 -17 111q4 4 16 10l24 13q13 7 25.5 12.5t18.5 5.5q23 4 82 10l126 13q67 7 126 12.5t84 5.5l82 84q-23 45 -60.5 70.5t-84 38t-95.5 15.5t-92 3q-90 0 -179 -22.5t-179 -22.5 q-4 0 -12 1l-7 1q-18 8 -33.5 25.5t-26.5 38t-18.5 42t-7.5 39.5q0 111 38 194t103.5 138t152.5 82.5t188 27.5q49 0 94 -7t88 -16t86 -16.5t90 -7.5q31 0 57.5 13.5t26.5 50.5q0 80 -53.5 127t-127 70.5t-152.5 30.5t-130 7q-164 0 -302 -57t-239.5 -159.5t-158 -242 t-56.5 -305.5z" />
<glyph unicode="&#xfb02;" horiz-adv-x="2494" d="M1171 961q0 -6 12.5 -32t28 -53.5t27.5 -52t16 -30.5q2 -4 7.5 -21.5t12.5 -37t13 -39t8 -27.5q18 -66 29.5 -137.5t26 -141.5t36 -133t59.5 -111.5t98.5 -77t150.5 -28.5q10 0 33.5 1t25.5 1q20 4 67 17l103 29l121 34l122 36l104 30q46 13 69 22q33 10 83 29.5t96 40.5 l80 35q34 15 34 20v100q-117 0 -228.5 -29.5t-222 -64.5t-222.5 -64.5t-226 -29.5q-70 0 -108 35.5t-57.5 95t-25.5 135.5t-10 154.5t-12.5 154.5t-32 135.5t-69.5 95t-124 35.5q-20 0 -43.5 -11t-43 -29.5t-30.5 -40.5q-8 -17 -9 -33q0 -6 1 -12zM16 743q0 -39 12.5 -106.5 t34 -145t52 -159.5t68.5 -147.5t82 -107.5t91 -42q70 0 111 43t57 103q15 54 15 112v14q-2 66 -17 111q4 4 16 10l24 13q13 7 25.5 12.5t18.5 5.5q23 4 82 10l126 13q67 7 126 12.5t84 5.5l82 84q-23 45 -60.5 70.5t-84 38t-95.5 15.5t-92 3q-90 0 -179 -22.5t-179 -22.5 q-4 0 -12 1l-7 1q-18 8 -33.5 25.5t-26.5 38t-18.5 42t-7.5 39.5q0 111 38 194t103.5 138t152.5 82.5t188 27.5q49 0 94 -7t88 -16t86 -16.5t90 -7.5q31 0 57.5 13.5t26.5 50.5q0 80 -53.5 127t-127 70.5t-152.5 30.5t-130 7q-164 0 -302 -57t-239.5 -159.5t-158 -242 t-56.5 -305.5z" />
<glyph unicode="&#xfb03;" horiz-adv-x="2676" d="M2318 395v-102q0 -55 13.5 -103.5t45 -80t95.5 -31.5q31 0 58.5 4t51 18.5t42 40t32.5 66.5q4 11 4 34q0 12 -1 27q-3 45 -14 100.5t-29.5 116t-43 110.5t-55.5 83t-68 33q-55 0 -82.5 -37t-38.5 -88q-10 -47 -11 -96q0 -19 0.5 -52t0.5 -43zM1167 743q0 -39 12.5 -106.5 t34 -145t52 -159.5t68.5 -147.5t82 -107.5t91 -42q70 0 111 43t57 103q15 54 15 112v14q-2 66 -17 111q4 4 16 10l24 13q13 7 25.5 12.5t18.5 5.5q23 4 82 10l126 13q67 7 126 12.5t84 5.5l82 84q-23 45 -60.5 70.5t-84 38t-95.5 15.5t-92 3q-90 0 -179 -22.5t-179 -22.5 q-4 0 -12 1l-7 1q-18 8 -33.5 25.5t-26.5 38t-18.5 42t-7.5 39.5q0 111 38 194t103.5 138t152.5 82.5t188 27.5q49 0 94 -7t88 -16t86 -16.5t90 -7.5q31 0 57.5 13.5t26.5 50.5q0 80 -53.5 127t-127 70.5t-152.5 30.5t-130 7q-164 0 -302 -57t-239.5 -159.5t-158 -242 t-56.5 -305.5zM16 743q0 -39 12.5 -106.5t34 -145t52 -159.5t68.5 -147.5t82 -107.5t91 -42q70 0 111 43t57 103q15 54 15 112v14q-2 66 -17 111q4 4 16 10l24 13q13 7 25.5 12.5t18.5 5.5q23 4 82 10l126 13q67 7 126 12.5t84 5.5l82 84q-23 45 -60.5 70.5t-84 38 t-95.5 15.5t-92 3q-90 0 -179 -22.5t-179 -22.5q-4 0 -12 1l-7 1q-18 8 -33.5 25.5t-26.5 38t-18.5 42t-7.5 39.5q0 111 38 194t103.5 138t152.5 82.5t188 27.5q49 0 94 -7t88 -16t86 -16.5t90 -7.5q31 0 57.5 13.5t26.5 50.5q0 80 -53.5 127t-127 70.5t-152.5 30.5t-130 7 q-164 0 -302 -57t-239.5 -159.5t-158 -242t-56.5 -305.5z" />
<glyph unicode="&#xfb04;" horiz-adv-x="3645" d="M2322 961q0 -6 12.5 -32t28 -53.5t27.5 -52t16 -30.5q2 -4 7.5 -21.5t12.5 -37t13 -39t8 -27.5q18 -66 29.5 -137.5t26 -141.5t36 -133t59.5 -111.5t98.5 -77t150.5 -28.5q10 0 33.5 1t25.5 1q20 4 67 17l103 29l121 34l122 36l104 30q46 13 69 22q33 10 83 29.5t96 40.5 l80 35q34 15 34 20v100q-117 0 -228.5 -29.5t-222 -64.5t-222.5 -64.5t-226 -29.5q-70 0 -108 35.5t-57.5 95t-25.5 135.5t-10 154.5t-12.5 154.5t-32 135.5t-69.5 95t-124 35.5q-20 0 -43.5 -11t-43 -29.5t-30.5 -40.5q-8 -17 -9 -33q0 -6 1 -12zM1167 743 q0 -39 12.5 -106.5t34 -145t52 -159.5t68.5 -147.5t82 -107.5t91 -42q70 0 111 43t57 103q15 54 15 112v14q-2 66 -17 111q4 4 16 10l24 13q13 7 25.5 12.5t18.5 5.5q23 4 82 10l126 13q67 7 126 12.5t84 5.5l82 84q-23 45 -60.5 70.5t-84 38t-95.5 15.5t-92 3 q-90 0 -179 -22.5t-179 -22.5q-4 0 -12 1l-7 1q-18 8 -33.5 25.5t-26.5 38t-18.5 42t-7.5 39.5q0 111 38 194t103.5 138t152.5 82.5t188 27.5q49 0 94 -7t88 -16t86 -16.5t90 -7.5q31 0 57.5 13.5t26.5 50.5q0 80 -53.5 127t-127 70.5t-152.5 30.5t-130 7q-164 0 -302 -57 t-239.5 -159.5t-158 -242t-56.5 -305.5zM16 743q0 -39 12.5 -106.5t34 -145t52 -159.5t68.5 -147.5t82 -107.5t91 -42q70 0 111 43t57 103q15 54 15 112v14q-2 66 -17 111q4 4 16 10l24 13q13 7 25.5 12.5t18.5 5.5q23 4 82 10l126 13q67 7 126 12.5t84 5.5l82 84 q-23 45 -60.5 70.5t-84 38t-95.5 15.5t-92 3q-90 0 -179 -22.5t-179 -22.5q-4 0 -12 1l-7 1q-18 8 -33.5 25.5t-26.5 38t-18.5 42t-7.5 39.5q0 111 38 194t103.5 138t152.5 82.5t188 27.5q49 0 94 -7t88 -16t86 -16.5t90 -7.5q31 0 57.5 13.5t26.5 50.5q0 80 -53.5 127 t-127 70.5t-152.5 30.5t-130 7q-164 0 -302 -57t-239.5 -159.5t-158 -242t-56.5 -305.5z" />
</font>
</defs>
</svg>
